<svg width="574" height="681" viewBox="0 0 574 681" fill="none" xmlns="http://www.w3.org/2000/svg">
<path d="M182.619 255.831C181.217 253.026 179.812 250.218 177.707 248.227C175.601 246.237 172.793 245.067 167.878 244.364C162.963 243.662 155.942 243.428 148.803 243.428C141.665 243.428 134.41 243.662 129.611 244.598C124.812 245.534 122.472 247.172 119.195 248.81C115.919 250.448 111.707 252.086 108.08 251.853C104.453 251.621 101.411 249.514 99.6538 246.004C97.8971 242.495 97.4289 237.58 97.0778 233.017C96.7266 228.453 96.4926 224.241 95.4401 220.029C94.3876 215.817 92.5153 211.605 92.9827 208.21C93.4501 204.814 96.2586 202.24 101.994 199.783C107.728 197.325 116.388 194.985 125.047 192.762C133.707 190.539 142.366 188.433 147.75 187.497C153.133 186.561 155.24 186.796 159.334 184.572C163.428 182.348 169.513 177.668 175.598 172.754C181.683 167.839 187.768 162.691 194.439 158.128C201.11 153.564 208.365 149.586 217.493 147.363C226.622 145.14 237.621 144.672 246.866 146.311C256.111 147.95 263.6 151.694 270.036 157.077C276.472 162.461 281.855 169.481 285.364 176.853C288.874 184.224 290.512 191.947 290.512 198.148C290.511 204.348 288.873 209.029 285.831 213.24C282.789 217.452 278.342 221.196 271.673 224.004C265.003 226.812 256.11 228.684 247.919 228.334C239.728 227.984 232.239 225.409 225.335 221.666C218.43 217.922 212.111 213.008 207.43 207.158C202.748 201.308 199.706 194.521 198.769 187.851C197.831 181.181 199.002 174.628 200.991 169.479C202.98 164.33 205.789 160.586 207.427 157.895C209.065 155.204 209.533 153.566 212.501 151.7C215.469 149.834 220.935 147.742 226.399 145.651" stroke="#F9F9FB" stroke-width="0.999999"/>
<path d="M285.831 180.009C289.345 180.945 292.856 181.882 296.717 182.232C300.579 182.583 304.791 182.349 309.004 183.168C313.217 183.988 317.43 185.861 320.94 189.255C324.45 192.649 327.258 197.563 328.779 202.244C330.299 206.924 330.533 211.37 328.895 216.283C327.256 221.197 323.745 226.579 320.118 230.323C316.491 234.066 312.747 236.173 305.493 236.992C298.238 237.811 287.472 237.343 280.217 237.109C272.962 236.875 269.217 236.875 266.641 237.929C264.065 238.982 262.661 241.088 259.152 242.258C255.643 243.427 250.026 243.662 241.249 244.598C232.472 245.534 220.536 247.172 210.238 249.161C199.94 251.15 191.281 253.49 182.62 255.831" stroke="#F9F9FB" stroke-width="0.999999"/>
<path d="M91.3446 212.303C82.6851 213.942 74.0278 215.579 64.549 217.686C55.0701 219.792 44.7726 222.366 36.2299 224.706C27.6873 227.046 20.9002 229.152 15.9856 230.439C11.071 231.727 8.02863 232.195 6.27207 235.238C4.51551 238.282 4.04743 243.899 5.21927 247.877C6.39112 251.855 9.19951 254.195 13.6457 254.428C18.0919 254.66 24.1769 252.788 32.3683 250.097C40.5597 247.406 50.8573 243.895 61.8575 240.912C72.8577 237.928 84.5574 235.471 96.2594 233.014L91.3446 212.303Z" stroke="#F9F9FB" stroke-width="0.999999"/>
<path d="M330.182 206.454C330.299 209.03 330.533 214.178 329.48 218.155C328.426 222.132 326.086 224.941 328.31 225.642C330.535 226.344 337.322 224.94 344.929 224.94C352.536 224.941 360.961 226.345 367.397 227.515C373.833 228.685 378.28 229.621 381.907 229.972C385.535 230.323 388.343 230.089 389.98 227.399C391.617 224.709 392.085 219.56 392.203 216.401C392.32 213.243 392.086 212.072 387.641 210.667C383.195 209.262 374.536 207.623 365.993 206.687C357.45 205.751 349.025 205.517 343.057 205.166C337.089 204.815 333.579 204.347 331.822 204.113C330.065 203.879 330.065 203.879 330.182 206.454Z" stroke="#F9F9FB" stroke-width="0.999999"/>
<path d="M108.705 197.38C108.705 194.404 108.705 191.426 108.209 189.026C107.714 186.627 106.721 184.807 103.081 182.076C99.4404 179.345 93.1518 175.704 84.6289 171.567C76.1061 167.43 65.3494 162.797 53.1029 158.246C40.8564 153.695 27.1209 149.227 17.936 146.414C8.75116 143.601 4.11751 142.443 -0.519531 141.283" stroke="#F9F9FB" stroke-width="0.999999"/>
<path d="M118.138 193.905C117.145 189.109 116.152 184.31 114.664 180.918C113.176 177.525 111.19 175.54 105.812 172.23C100.433 168.92 91.6624 164.286 82.8085 160.646C73.9546 157.005 65.0182 154.357 55.7506 151.296C46.483 148.235 36.8847 144.76 30.596 142.278C24.3073 139.796 21.3286 138.307 18.3495 136.321C15.3705 134.336 12.3917 131.854 10.2403 130.116C8.08898 128.379 6.76504 127.386 5.43799 126.391" stroke="#F9F9FB" stroke-width="0.999999"/>
<path d="M22.3191 138.571C22.9808 133.443 23.6426 128.314 23.643 123.554C23.6434 118.794 22.9815 114.403 20.5002 109.973C18.0189 105.543 13.7163 101.076 9.16551 97.7654C4.61478 94.4552 -0.184414 92.304 -5.31537 91.8894C-10.4463 91.4747 -15.9074 92.7984 -21.121 94.7842C-26.3345 96.7699 -31.2992 99.4175 -34.9408 103.224C-38.5824 107.031 -40.8992 111.995 -42.3885 116.712C-43.8778 121.429 -44.5398 125.896 -44.2082 130.53C-43.8766 135.164 -42.5526 139.963 -39.821 144.265C-37.0894 148.567 -32.9522 152.373 -28.8974 154.854C-24.8426 157.336 -20.8709 158.494 -15.9064 158.907C-10.9419 159.32 -4.98441 158.989 -0.51679 158.162C3.95084 157.334 6.92961 156.01 9.84936 153.962C12.7691 151.914 15.6309 149.141 18.4927 146.368" stroke="#F9F9FB" stroke-width="0.999999"/>
<path d="M300.84 181.494C301.667 175.87 302.495 170.244 304.481 165.94C306.467 161.637 309.611 158.658 313.501 155.183C317.39 151.708 322.023 147.737 326.575 144.013C331.126 140.29 335.594 136.815 339.814 133.423C344.034 130.031 348.006 126.721 352.143 123.66C356.281 120.598 360.583 117.785 364.885 114.973" stroke="#F9F9FB" stroke-width="0.999999"/>
<path d="M308.299 183.08C308.474 179.777 308.65 176.472 310.464 173.326C312.278 170.18 315.73 167.196 319.65 163.715C323.57 160.234 327.958 156.256 333.224 151.283C338.49 146.31 344.634 140.342 349.695 135.837C354.756 131.332 358.735 128.29 361.631 126.272C364.528 124.253 366.342 123.259 368.039 122.762C369.737 122.265 371.317 122.265 372.894 122.265" stroke="#F9F9FB" stroke-width="0.999999"/>
<path d="M352.884 122.089C351.949 118.933 351.013 115.774 350.486 112.029C349.958 108.285 349.842 103.955 351.363 99.4493C352.884 94.9433 356.044 90.263 359.731 86.9861C363.418 83.7092 367.63 81.8372 373.073 81.3697C378.515 80.9021 385.185 81.8382 390.158 84.4137C395.131 86.9893 398.408 91.2016 400.864 96.8182C403.321 102.435 404.959 109.455 405.134 115.481C405.308 121.506 404.022 126.537 401.506 130.69C398.99 134.843 395.246 138.119 390.8 140.225C386.354 142.331 381.205 143.267 376.584 142.625C371.962 141.982 367.866 139.759 364.589 137.419C361.313 135.08 358.855 132.623 356.395 130.163" stroke="#F9F9FB" stroke-width="0.999999"/>
<path d="M182.62 255.83C174.366 261.333 166.112 266.837 159.584 272.319C153.057 277.801 148.258 283.262 145.776 291.289C143.293 299.316 143.128 309.906 143.873 318.346C144.618 326.785 146.273 333.073 148.756 339.775C151.238 346.477 154.548 353.592 157.609 363.521C160.671 373.45 163.484 386.191 166.049 398.188C168.614 410.185 170.931 421.438 171.592 432.69C172.254 443.942 171.261 455.194 169.109 467.191C166.958 479.188 163.648 491.929 160.504 505.498C157.36 519.068 154.381 533.464 147.513 553.983C140.645 574.502 129.888 601.143 121.531 617.028C113.174 632.913 107.216 638.043 103.079 641.186C98.9426 644.33 96.6258 645.489 89.2622 645.324C81.8987 645.159 69.4871 643.669 50.8691 641.022C32.2511 638.374 7.42794 634.568 -6.55605 631.673C-20.54 628.778 -23.6843 626.792 -25.672 627.537C-27.6598 628.282 -28.4872 631.757 -20.0451 635.314C-11.6031 638.871 6.10416 642.511 20.4192 644.91C34.7342 647.31 45.6564 648.468 56.4134 649.792C67.1705 651.116 77.7617 652.605 86.0362 653.35C94.3107 654.095 100.268 654.094 105.563 652.191C110.857 650.288 115.491 646.482 120.207 640.194C124.923 633.907 129.722 625.137 134.604 615.043C139.486 604.949 144.451 593.531 150.078 576.818C155.705 560.105 161.993 538.097 166.958 519.15C171.923 500.203 175.564 484.317 177.881 471.907C180.198 459.496 181.191 450.561 181.191 439.97C181.191 429.38 180.198 417.135 178.295 405.634C176.392 394.134 173.579 383.378 171.014 373.615C168.449 363.852 166.132 355.082 163.236 346.891C160.34 338.699 156.865 331.088 154.878 323.393C152.892 315.698 152.395 307.921 153.14 301.301C153.884 294.681 155.87 289.22 159.346 284.255C162.821 279.29 167.786 274.822 179.289 269.775C190.791 264.728 208.83 259.102 226.866 253.476" stroke="#F9F9FB" stroke-width="0.999999"/>
<path d="M222.894 246.278C225.544 250.832 228.192 255.383 231.667 261.464C235.142 267.545 239.445 275.157 250.132 294.015C260.819 312.872 277.89 342.975 288.24 359.313C298.59 375.651 302.217 378.225 305.962 380.74C309.707 383.256 313.568 385.713 317.313 386.999C321.057 388.285 324.685 388.402 328.43 388.402C332.174 388.402 336.036 388.285 338.609 387.291C341.182 386.297 342.469 384.425 343.58 381.851C344.692 379.278 345.628 376.001 345.746 371.38C345.863 366.758 345.161 360.791 337.263 341.718C329.364 322.646 314.269 290.469 305.727 273.444C297.185 256.418 295.196 254.546 292.446 252.498C289.696 250.45 286.186 248.227 282.558 246.881C278.93 245.534 275.186 245.066 271.128 244.471C267.07 243.876 262.696 243.154 258.325 242.431C265.036 243.27 271.751 244.11 279.378 246.988C287.005 249.865 295.547 254.78 304.09 259.752C312.633 264.725 321.175 269.757 328.079 275.374C334.983 280.991 340.248 287.192 346.509 297.782C352.769 308.372 360.024 323.348 367.337 339.028C374.651 354.707 382.024 371.088 386.821 383.55C391.619 396.011 393.842 404.553 395.831 412.276C397.821 419.998 399.576 426.902 400.863 435.034C402.15 443.166 402.969 452.526 402.91 458.844C402.847 465.162 401.915 468.438 401.33 470.369C400.745 472.299 400.51 472.885 395.949 470.135C391.387 467.386 382.493 461.302 372.547 456.387C362.6 451.472 351.6 447.728 339.078 446.674C326.557 445.62 312.515 447.258 296.704 449.182C280.892 451.105 263.314 453.314 248.565 461.534C233.816 469.755 221.901 483.985 214.619 500.369C207.337 516.752 204.69 535.285 202.207 551.667C199.725 568.049 197.408 582.28 199.395 596.181C201.382 610.081 207.67 623.65 213.298 633.248C218.925 642.845 223.89 648.471 230.179 652.111C236.468 655.75 244.08 657.405 250.037 657.735C255.994 658.065 260.297 657.072 263.938 658.233C267.579 659.393 270.558 662.703 272.543 668.329C274.528 673.955 275.521 681.898 269.068 685.702C262.615 689.507 248.714 689.176 226.868 688.68C205.023 688.183 175.235 687.521 147.102 686.694C118.968 685.867 92.4897 684.874 65.6798 684.377C38.8699 683.88 11.7298 683.88 -3.16473 681.896C-18.0593 679.912 -20.7071 675.941 -24.183 667.502C-27.6589 659.062 -31.9615 646.155 -34.2788 638.212C-36.5961 630.269 -36.927 627.291 -35.105 626.297C-33.2831 625.303 -29.3115 626.296 -25.343 627.288" stroke="#F9F9FB" stroke-width="0.999999"/>
<path d="M237.502 626.869C236.917 621.605 235.747 611.074 235.279 599.607C234.81 588.14 235.044 575.737 235.162 562.632C235.279 549.527 235.279 535.72 238.087 522.965C240.895 510.21 246.512 498.509 253.183 489.148C259.853 479.786 267.576 472.766 276.588 467.851C285.599 462.937 295.897 460.129 305.376 458.725C314.855 457.321 323.515 457.321 332.876 458.725C342.238 460.13 352.302 462.938 363.068 467.853C373.834 472.768 385.301 479.789 394.312 487.278C403.322 494.767 409.875 502.723 416.077 512.553C422.278 522.382 428.129 534.082 430.236 539.698C432.344 545.313 430.705 544.845 413.269 547.067C395.832 549.29 362.599 554.204 335.684 556.896C308.77 559.587 288.174 560.055 274.365 564.385C260.555 568.714 253.534 576.905 249.438 586.735C245.342 596.565 244.172 608.031 243.587 615.754C243.002 623.477 243.002 627.455 242.184 629.56C241.366 631.664 239.728 631.898 238.907 632.016C238.087 632.133 238.087 632.133 237.502 626.869Z" stroke="#F9F9FB" stroke-width="0.999999"/>
<path d="M384.543 550.531C394.471 563.46 404.396 576.385 412.869 592.326C421.342 608.267 428.363 627.222 432.692 642.784C437.022 658.346 438.66 670.515 439.479 683.035C440.297 695.555 440.297 708.426 439.01 721.297C437.723 734.167 435.148 747.038 431.17 760.494C427.191 773.95 421.808 787.991 414.319 797.468C406.831 806.944 397.235 811.859 387.289 814.901C377.343 817.943 367.046 819.113 357.333 816.774C347.621 814.435 338.493 808.585 330.301 800.863C322.11 793.14 314.855 783.546 308.769 770.909C302.683 758.272 297.768 742.593 294.023 729.02C290.279 715.446 287.704 703.98 286.417 697.544C285.129 691.108 285.129 689.704 287.939 691.81C290.749 693.917 296.366 699.533 299.524 707.022C302.682 714.511 303.384 723.871 307.715 734.636C312.046 745.401 320.003 757.57 325.855 765.175C331.706 772.781 335.451 775.823 339.312 777.46C343.174 779.097 347.153 779.331 352.534 776.288C357.916 773.246 364.703 766.927 368.915 757.685C373.128 748.442 374.766 736.273 375.468 722.934C376.17 709.595 375.937 695.086 375.819 683.385C375.703 671.684 375.703 662.792 373.363 651.676C371.023 640.56 366.342 627.222 360.726 617.158C355.109 607.095 348.556 600.309 342.706 595.628C336.855 590.947 331.706 588.373 326.554 585.797" stroke="#F9F9FB" stroke-width="0.999999"/>
<path d="M319.533 557.013C321.874 566.611 324.215 576.206 327.257 586.386C330.3 596.565 334.045 607.33 335.916 615.052C337.788 622.775 337.788 627.455 333.109 629.209C328.429 630.963 319.068 629.793 313.566 631.549C308.064 633.305 306.426 637.985 305.607 643.602C304.788 649.219 304.788 655.771 301.862 663.844C298.937 671.917 293.086 681.512 292.853 688.767C292.621 696.023 298.004 700.937 302.801 702.69C307.599 704.444 311.811 703.04 314.385 696.255C316.958 689.47 317.894 677.301 319.649 668.524C321.405 659.748 323.979 654.366 327.022 648.866C330.064 643.366 333.575 637.75 338.023 638.102C342.471 638.454 347.854 644.773 351.832 652.496C355.81 660.219 358.384 669.345 359.554 681.514C360.724 693.683 360.49 708.894 358.5 720.009C356.511 731.124 352.766 738.144 348.087 741.186C343.408 744.228 337.791 743.292 332.993 739.315C328.194 735.338 324.216 728.318 321.173 720.741C318.13 713.165 316.023 705.033 313.916 696.897" stroke="#F9F9FB" stroke-width="0.999999"/>
<path d="M285.831 561.225C290.747 571.993 295.662 582.758 301.045 594.225C306.428 605.692 312.279 617.861 318.129 630.027" stroke="#F9F9FB" stroke-width="0.999999"/>
<path d="M302.907 662.031C298.622 656.982 294.334 651.931 293.476 646.479C292.618 641.027 295.192 635.177 293.672 628.04C292.152 620.903 286.536 612.479 279.866 603.469C273.196 594.459 265.472 584.864 261.024 582.407C256.576 579.949 255.406 584.629 256.46 589.778C257.514 594.927 260.791 600.544 264.653 608.032C268.514 615.521 272.961 624.882 278.096 637.251C283.231 649.619 289.055 664.996 294.877 680.369" stroke="#F9F9FB" stroke-width="0.999999"/>
<path d="M281.618 647.578C277.171 651.79 272.725 656.003 271.555 662.089C270.385 668.175 272.492 676.132 276.808 682.128C281.124 688.124 287.648 692.161 294.169 696.195" stroke="#F9F9FB" stroke-width="0.999999"/>
<path d="M239.082 632.31C246.477 632.719 253.868 633.128 259.523 631.724C265.178 630.319 269.098 627.101 273.018 623.884" stroke="#F9F9FB" stroke-width="0.999999"/>
<path d="M255.64 486.105C264.302 484.233 272.961 482.361 280.685 483.649C288.409 484.937 295.196 489.384 301.632 496.99C308.067 504.596 314.152 515.361 319.411 525.919C324.669 536.477 329.102 546.828 333.533 557.176" stroke="#F9F9FB" stroke-width="0.999999"/>
<path d="M293.349 460.792C301.612 466.658 309.872 472.521 317.512 479.197C325.153 485.874 332.174 493.362 339.078 499.564C345.983 505.765 352.77 510.679 358.269 512.316C363.768 513.952 367.981 512.314 369.501 508.455C371.022 504.596 369.852 498.511 366.758 490.668C363.665 482.824 358.646 473.222 353.626 463.616" stroke="#F9F9FB" stroke-width="0.999999"/>
<path d="M137.502 462.142C128.566 462.804 110.693 464.127 90.9999 459.991C71.3066 455.855 49.7932 446.258 34.2369 439.307C18.6807 432.357 9.0823 428.055 0.641849 422.099C-7.7986 416.142 -15.0801 408.53 -26.0026 404.392C-36.9251 400.254 -51.488 399.592 -65.5546 396.448C-79.6213 393.305 -93.1913 387.679 -99.9781 380.068C-106.765 372.456 -106.765 362.859 -104.613 356.404C-102.462 349.949 -98.1591 346.639 -92.2002 344.653C-86.2414 342.668 -78.6289 342.006 -71.5124 342.172C-64.3959 342.337 -57.7764 343.33 -54.7993 346.475C-51.8222 349.62 -52.4841 354.916 -50.8293 353.756C-49.1745 352.597 -45.2028 344.986 -36.5954 341.345C-27.988 337.704 -14.7489 338.035 -1.34404 338.2C12.0609 338.366 25.6308 338.366 37.05 339.193C48.4692 340.021 57.7366 341.676 64.8527 344.49C71.9688 347.304 76.9335 351.275 73.7884 355.08C70.6433 358.884 59.39 362.525 48.137 364.511C36.884 366.497 25.6308 366.827 15.7014 366.497C5.77201 366.166 -2.83338 365.173 2.79337 364.676C8.42014 364.18 28.2788 364.18 43.6691 362.69C59.0595 361.201 69.9816 358.222 79.7461 356.402C89.5105 354.582 98.1158 353.92 106.225 354.086C114.335 354.252 121.947 355.244 131.049 360.541C140.151 365.837 150.742 375.435 157.258 384.536C163.773 393.638 166.214 402.242 168.034 411.385C169.854 420.528 171.054 430.208 171.488 438.316C171.922 446.424 171.591 452.96 167.29 456.558C162.988 460.156 154.714 460.818 150.575 461.149C146.437 461.48 146.437 461.48 137.502 462.142Z" stroke="#F9F9FB" stroke-width="0.999999"/>
<path d="M122.606 381.059C125.255 386.357 127.903 391.652 127.737 400.753C127.57 409.854 124.591 422.761 121.447 432.358C118.303 441.955 114.993 448.243 106.222 456.02C97.4516 463.796 83.2197 473.063 73.4552 480.675C63.6907 488.287 58.3951 494.245 54.7541 502.354C51.1131 510.463 49.1273 520.723 49.1279 530.321C49.1285 539.919 51.1143 548.855 55.0869 557.791C59.0595 566.726 65.0171 575.662 73.2923 582.942C81.5676 590.222 92.1588 595.848 101.223 600.102C110.286 604.356 117.822 607.238 125.354 610.118" stroke="#F9F9FB" stroke-width="0.999999"/>
<path d="M32.2476 559.773C43.5038 559.773 54.7572 559.773 65.6797 559.773C76.6022 559.773 87.1934 559.773 100.773 558.867C114.352 557.961 130.92 556.152 147.485 554.342" stroke="#F9F9FB" stroke-width="0.999999"/>
<path d="M128.564 600.728C121.782 598.992 114.997 597.254 108.377 593.408C101.757 589.561 95.3028 583.604 93.0258 579.549C90.7488 575.493 92.6519 573.342 97.9078 572.101C103.164 570.86 111.769 570.529 118.637 570.363C125.505 570.197 130.635 570.197 134.11 570.239C137.586 570.281 139.406 570.363 141.224 570.446" stroke="#F9F9FB" stroke-width="0.999999"/>
<path d="M169.104 455.292C165.519 461.658 161.935 468.023 159.978 475.178C158.021 482.333 157.69 490.275 158.09 495.161C158.489 500.047 159.618 501.876 160.744 503.701" stroke="#F9F9FB" stroke-width="0.999999"/>
<path d="M-160.054 509.386C-158.73 504.671 -156.082 495.239 -151.862 485.393C-147.642 475.546 -141.85 465.287 -135.975 455.772C-130.1 446.257 -124.142 437.487 -115.95 429.791C-107.757 422.096 -97.3314 415.477 -87.7324 410.678C-78.1333 405.879 -69.3625 402.901 -61.17 401.412C-52.9775 399.923 -45.3651 399.923 -37.4211 401.744C-29.4772 403.565 -21.2027 407.205 -13.9212 411.591C-6.63969 415.977 -0.351164 421.106 4.5301 427.56C9.41135 434.014 12.8866 441.792 14.7891 448.742C16.6915 455.691 17.0225 461.814 16.1948 470.915C15.367 480.016 13.3812 492.095 7.58875 509.47C1.79634 526.845 -7.80193 549.515 -16.0763 564.655C-24.3507 579.796 -31.3013 587.408 -38.0848 590.552C-44.8684 593.696 -51.4878 592.372 -60.0934 589.89C-68.699 587.408 -79.2903 583.768 -91.5368 579.879C-103.783 575.99 -117.684 571.853 -128.524 568.213C-139.364 564.572 -147.142 561.429 -153.596 558.119C-160.05 554.81 -165.18 551.335 -167.83 545.792C-170.479 540.249 -170.645 532.637 -169.155 527.01C-167.666 521.382 -164.522 517.742 -162.95 515.921C-161.377 514.101 -161.377 514.101 -160.054 509.386Z" stroke="#F9F9FB" stroke-width="0.999999"/>
<path d="M-8.46207 547.858C-0.51528 549.514 7.42831 551.169 12.7239 552.079C18.0195 552.988 20.6674 553.154 18.4315 557.788C16.1957 562.421 9.07973 571.522 3.78383 579.631C-1.51207 587.74 -4.98725 594.855 -7.55238 601.309C-10.1175 607.763 -11.7724 613.555 -13.4268 619.345" stroke="#F9F9FB" stroke-width="0.999999"/>
<path d="M6.34867 686.031C1.79612 687.355 -0.851734 690.334 -6.39419 691.492C-11.9367 692.651 -20.3765 691.989 -28.1564 697.615C-35.9363 703.242 -43.0523 715.156 -49.6714 722.85C-56.2904 730.544 -62.4134 734.019 -68.2872 734.682C-74.161 735.345 -79.7875 733.193 -85.6633 726.492C-91.5391 719.791 -97.6622 708.539 -101.138 700.679C-104.614 692.819 -105.441 688.351 -108.915 685.041C-112.389 681.73 -118.513 679.579 -120.582 682.228C-122.652 684.876 -120.666 692.323 -118.598 700.017C-116.529 707.712 -114.378 715.655 -110.819 723.763C-107.26 731.872 -102.296 740.145 -96.8339 746.35C-91.372 752.555 -85.4145 756.692 -78.9601 760.166C-72.5058 763.641 -65.5553 766.454 -58.6878 767.612C-51.8202 768.769 -45.0352 768.273 -38.4985 767.28C-31.9618 766.287 -25.6733 764.797 -19.3028 760.992C-12.9323 757.186 -6.47818 751.063 -0.851718 744.031C4.77474 736.998 9.57389 729.056 13.5457 719.128C17.5175 709.2 20.6623 697.284 23.8067 685.369C17.3525 685.038 10.9012 684.708 6.34867 686.031Z" stroke="#F9F9FB" stroke-width="0.999999"/>
<path d="M163.662 529.282C165.419 528.696 167.175 528.111 171.094 525.946C175.014 523.782 181.099 520.038 188.295 513.485C195.491 506.933 203.8 497.572 213.337 488.504C222.875 479.435 233.64 470.66 240.093 466.06C246.546 461.459 248.684 461.035 250.82 460.611" stroke="#F9F9FB" stroke-width="0.999999"/>
<path d="M400.277 471.011C400.511 478.69 400.744 486.367 400.979 494.04" stroke="#F9F9FB" stroke-width="0.999999"/>
</svg>
