<svg width="1566" height="715" viewBox="0 0 1566 715" fill="none" xmlns="http://www.w3.org/2000/svg">
<path d="M179.247 727.798C179.073 722.387 178.724 711.561 178.549 695.495C178.374 679.43 178.375 658.126 178.375 639.965C178.375 621.805 178.375 606.788 178.375 595.612C178.375 584.436 178.375 577.102 179.77 567.846C181.166 558.591 183.959 547.415 187.624 537.461C191.289 527.507 195.827 518.776 202.634 509.346C209.442 499.915 218.517 489.788 227.244 480.707C235.971 471.626 244.349 463.594 254.473 457.133C264.597 450.671 276.465 445.782 289.556 441.242C302.646 436.702 316.958 432.511 331.096 428.844C345.233 425.177 359.196 422.033 373.333 419.24C387.471 416.446 401.783 414.001 415.396 411.382C429.01 408.762 441.926 405.968 458.157 402.127C474.389 398.285 493.937 393.396 515.056 388.157C536.175 382.918 558.864 377.33 578.76 369.472C598.656 361.614 615.76 351.487 634.436 341.184C653.112 330.881 673.357 320.404 692.556 310.276C711.755 300.148 729.907 290.369 760.8 274.478C791.693 258.587 835.326 236.586 867.092 222.791C898.858 208.995 918.755 203.408 937.78 200.439C956.805 197.471 974.956 197.122 999.741 197.122C1024.52 197.122 1055.94 197.471 1087.01 197.471C1118.08 197.471 1148.79 197.122 1181.78 196.773C1214.77 196.423 1250.02 196.074 1288.25 196.074C1326.47 196.074 1367.66 196.424 1404.49 196.773C1441.31 197.122 1473.78 197.471 1500.13 198.694C1526.49 199.917 1546.73 202.012 1565.06 204.806C1583.39 207.6 1599.79 211.093 1619.17 215.982C1638.54 220.872 1660.88 227.158 1695.79 239.208C1730.69 251.257 1778.17 269.068 1813.42 285.134C1848.68 301.2 1871.72 315.518 1891.96 329.488C1912.21 343.459 1929.66 357.079 1944.67 369.477C1959.68 381.876 1972.25 393.051 1983.94 399.336C1995.64 405.62 2006.46 407.017 2015.36 411.56C2024.26 416.102 2031.24 423.785 2036.48 434.263C2041.71 444.74 2045.2 458.011 2046.95 474.076C2048.69 490.141 2048.69 509 2048.69 527.16C2048.69 545.321 2048.69 562.783 2048.69 584.611C2048.69 606.439 2048.69 632.632 2048.52 655.682C2048.34 678.732 2047.99 698.638 2045.38 712.257C2042.76 725.876 2037.87 733.21 2031.82 738.847C2025.76 744.483 2018.54 748.423 2013.41 749.087C2008.29 749.75 2005.26 747.133 2003.65 743.128C2002.05 739.123 2001.87 733.731 2001.78 724.923C2001.69 716.115 2001.69 703.897 2001.24 692.154C2000.79 680.411 1999.88 669.169 1998.09 658.969C1996.31 648.77 1993.64 639.624 1990.27 631.235C1986.9 622.845 1982.82 615.211 1978.31 607.502C1973.8 599.794 1968.85 592.007 1962.74 584.286C1956.63 576.564 1949.36 568.918 1941.77 562.443C1934.19 555.968 1926.3 550.66 1917.2 546.289C1908.11 541.918 1897.84 538.497 1888.21 535.964C1878.58 533.432 1869.61 531.795 1859.93 531.181C1850.25 530.568 1839.87 530.98 1830.12 532.277C1820.37 533.573 1811.25 535.754 1801.81 538.958C1792.37 542.162 1782.61 546.391 1773.84 551.764C1765.08 557.137 1757.31 563.651 1749.12 571.288C1740.92 578.926 1732.28 587.696 1724.62 598.871C1716.97 610.047 1710.31 623.633 1706.27 634.624C1702.24 645.616 1700.83 654.021 1700.32 663.303C1699.81 672.585 1700.19 682.732 1700.1 694.893C1700 707.055 1699.42 721.211 1694.56 733.355C1689.7 745.5 1680.57 755.623 1671.19 761.179C1661.81 766.735 1652.18 767.723 1645.03 767.97C1637.87 768.218 1633.18 767.724 1625.65 767.23C1618.12 766.736 1607.76 766.242 1586.53 766.118C1565.3 765.993 1533.21 766.244 1495.82 766.365C1458.42 766.49 1415.72 766.49 1363.15 766.982C1310.57 767.476 1248.12 768.464 1214.56 767.848C1180.99 767.232 1176.3 765.009 1170.62 760.565C1164.94 756.121 1158.28 749.453 1155.19 739.452C1152.1 729.45 1152.6 716.115 1152.1 700.433C1151.61 684.752 1150.13 666.725 1148.4 653.143C1146.67 639.56 1144.7 630.423 1141.12 621.039C1137.54 611.655 1132.36 602.024 1124.22 591.651C1116.07 581.279 1104.96 570.166 1093.49 561.028C1082.01 551.891 1070.16 544.729 1058.68 539.789C1047.21 534.849 1036.1 532.133 1022.4 530.157C1008.7 528.181 992.409 526.946 977.598 528.427C962.787 529.908 949.459 534.106 936.006 540.527C922.553 546.948 908.977 555.591 897.746 564.606C886.514 573.62 877.629 583.004 870.47 594.859C863.312 606.714 857.882 621.037 854.056 633.261C850.23 645.486 848.009 655.611 846.651 668.947C845.294 682.283 844.8 698.828 844.306 711.176C843.813 723.523 843.319 731.672 840.604 739.203C837.889 746.734 832.952 753.648 825.919 758.093C818.886 762.537 809.754 764.513 795.438 765.254C781.122 765.996 761.623 765.502 735.829 765.128C710.035 764.758 677.948 764.512 645.613 764.264C613.278 764.018 580.697 763.771 545.77 763.894C510.843 764.02 473.573 764.512 436.424 764.882C399.276 765.252 362.252 765.5 332.262 765.624C302.272 765.749 279.318 765.749 261.176 765.624C243.033 765.498 229.705 765.252 219.832 763.032C209.959 760.811 203.542 756.613 197.864 752.538C192.187 748.464 187.251 744.513 184.3 741.313C181.349 738.113 180.386 735.663 179.904 734.436C179.421 733.208 179.422 733.21 179.247 727.798Z" stroke="#F9F9FB" stroke-width="0.999999"/>
<path d="M1000.18 873.155C1076.44 873.155 1138.27 800.356 1138.27 710.554C1138.27 620.751 1076.44 547.952 1000.18 547.952C923.919 547.952 862.097 620.751 862.097 710.554C862.097 800.356 923.919 873.155 1000.18 873.155Z" stroke="#F9F9FB" stroke-width="1.0094"/>
<path d="M976.055 872.184C970.812 872.309 960.321 872.556 949.646 872.802C938.97 873.05 928.11 873.296 919.718 873.112C911.326 872.927 905.402 872.309 898.244 870.705C891.086 869.101 882.694 866.508 875.104 863.051C867.514 859.595 860.726 855.273 854.309 850.643C847.891 846.013 841.844 841.074 835.796 835.394C829.748 829.715 823.701 823.294 818.517 816.194C813.333 809.095 809.014 801.316 805.805 795.451C802.596 789.586 800.498 785.634 798.646 780.942C796.794 776.25 795.19 770.817 797.413 768.037C799.636 765.256 805.683 765.133 811.667 763.527C817.651 761.922 823.575 758.835 828.573 754.637C833.57 750.44 837.643 745.131 840.111 739.082C842.579 733.033 843.443 726.242 843.875 718.216C844.307 710.19 844.307 700.93 844.986 690.496C845.665 680.062 847.022 668.455 849.243 656.91C851.465 645.364 854.55 633.881 859.24 621.718C863.93 609.555 870.224 596.714 876.95 586.958C883.677 577.203 890.835 570.535 897.5 565.163C904.165 559.792 910.335 555.717 918.79 550.84C927.244 545.962 937.981 540.283 947.052 536.393C956.124 532.504 963.529 530.405 972.786 529.17C982.043 527.936 993.15 527.565 1003.52 528.121C1013.88 528.677 1023.51 530.159 1032.95 532.32C1042.39 534.482 1051.65 537.322 1061.34 541.644C1071.03 545.966 1081.15 551.77 1089.41 557.635C1097.68 563.501 1104.1 569.428 1109.22 574.491C1114.34 579.553 1118.17 583.751 1122.43 588.938C1126.68 594.124 1131.37 600.297 1135.32 607.397C1139.27 614.498 1142.48 622.523 1144.89 631.784C1147.29 641.045 1148.9 651.54 1150.07 662.406C1151.24 673.272 1151.98 684.508 1152.23 693.583C1152.47 702.659 1152.23 709.573 1152.47 715.747C1152.72 721.921 1153.46 727.354 1155.01 733.158C1156.55 738.961 1158.89 745.135 1161.8 749.95C1164.7 754.765 1168.15 758.223 1170.68 760.321C1173.21 762.419 1174.82 763.16 1171.48 763.652C1168.15 764.145 1159.88 764.393 1153.65 764.393C1147.42 764.393 1143.22 764.146 1139.58 763.652C1135.94 763.158 1132.86 762.418 1132.3 758.776C1131.74 755.134 1133.71 748.59 1135.07 739.021C1136.43 729.453 1137.17 716.858 1137.36 707.166C1137.54 697.473 1137.17 690.682 1135.94 682.409C1134.7 674.136 1132.61 664.382 1129.58 654.936C1126.56 645.49 1122.61 636.353 1118.97 628.821C1115.33 621.289 1112 615.362 1107.25 608.509C1102.49 601.656 1096.32 593.877 1089.54 587.209C1082.75 580.54 1075.34 574.984 1067.63 569.921C1059.92 564.858 1051.9 560.29 1044.12 557.325C1036.35 554.361 1028.82 553.003 1021.35 551.459C1013.88 549.916 1006.48 548.187 999.32 547.693C992.162 547.198 985.251 547.939 978.092 549.544C970.933 551.149 963.528 553.618 957.049 556.15C950.569 558.681 945.016 561.274 938.042 565.596C931.068 569.918 922.676 575.968 915.271 582.451C907.866 588.934 901.448 595.848 896.388 602.578C891.327 609.308 887.625 615.852 883.737 623.57C879.85 631.288 875.777 640.178 872.445 649.439C869.113 658.7 866.521 668.331 865.04 676.481C863.56 684.631 863.189 691.299 863.066 701.424C862.942 711.549 863.066 725.131 863.869 735.195C864.672 745.259 866.153 751.803 867.881 758.347C869.609 764.891 871.583 771.436 874.669 778.844C877.755 786.253 881.951 794.526 886.456 802.181C890.961 809.836 895.775 816.875 900.156 822.616C904.538 828.357 908.487 832.803 913.794 837.679C919.101 842.556 925.766 847.866 931.751 851.878C937.737 855.891 943.044 858.607 949.03 861.076C955.016 863.545 961.68 865.768 967.172 867.558C972.664 869.349 976.983 870.707 979.141 871.385C981.298 872.064 981.298 872.06 976.055 872.184Z" stroke="#F9F9FB" stroke-width="0.999999"/>
<path d="M799.369 763.593C799.369 758.533 799.369 753.469 799.631 746.222C799.893 738.975 800.416 729.546 800.94 717.846C801.463 706.147 801.987 692.177 802.249 679.866C802.511 667.556 802.511 656.904 804.169 646.513C805.826 636.122 809.142 625.994 812.808 616.128C816.473 606.261 820.487 596.657 826.16 586.965C831.832 577.273 839.163 567.494 847.366 557.89C855.57 548.285 864.645 538.856 873.983 531.172C883.322 523.488 892.921 517.551 903.655 511.963C914.39 506.375 926.258 501.137 938.825 497.208C951.393 493.279 964.657 490.66 976.351 489.176C988.046 487.692 998.169 487.342 1007.94 487.517C1017.72 487.692 1027.14 488.39 1036.48 489.875C1045.82 491.36 1055.07 493.63 1063.79 496.686C1072.52 499.743 1080.72 503.585 1089.63 508.562C1098.53 513.539 1108.13 519.65 1115.89 525.151C1123.66 530.652 1129.59 535.542 1135.53 541.479C1141.46 547.417 1147.4 554.401 1153.5 562.259C1159.61 570.118 1165.9 578.849 1171.04 587.667C1176.19 596.486 1180.21 605.391 1183.44 614.122C1186.66 622.853 1189.11 631.41 1191.03 641.363C1192.95 651.317 1194.34 662.667 1195.04 672.882C1195.74 683.097 1195.74 692.177 1196.26 699.337C1196.79 706.497 1197.83 711.735 1199.58 715.402C1201.33 719.069 1203.77 721.164 1211.36 722.821C1218.96 724.478 1231.7 725.701 1249.24 726.661C1266.78 727.621 1289.12 728.32 1317.21 728.37C1345.31 728.417 1379.16 727.821 1405.96 727.893C1432.75 727.972 1452.5 728.705 1473.36 728.458C1494.21 728.21 1516.18 726.976 1537.41 726.606C1558.64 726.236 1579.12 726.731 1594.55 726.976C1609.98 727.222 1620.34 727.222 1628.86 726.482C1637.37 725.74 1644.04 724.259 1647.62 716.729C1651.19 709.199 1651.69 695.617 1652.8 682.158C1653.91 668.699 1655.64 655.363 1658.23 642.645C1660.82 629.926 1664.27 617.826 1670.32 603.872C1676.37 589.919 1685.01 574.114 1694.14 561.272C1703.27 548.43 1712.9 538.552 1726.11 529.291C1739.31 520.029 1756.1 511.386 1768.44 505.583C1780.78 499.779 1788.68 496.816 1798.55 494.223C1808.43 491.63 1820.27 489.408 1832.86 488.173C1845.45 486.939 1858.78 486.692 1872.73 488.421C1886.67 490.151 1901.24 493.855 1912.96 497.93C1924.69 502.006 1933.57 506.451 1945.05 513.489C1956.53 520.528 1970.6 530.159 1982.07 539.42C1993.55 548.681 2002.44 557.571 2010.09 567.944C2017.74 578.316 2024.16 590.17 2028.72 600.912C2033.29 611.655 2036 621.286 2038.96 632.769C2041.93 644.252 2045.13 657.587 2048.34 670.918" stroke="#F9F9FB" stroke-width="0.999999"/>
<path d="M179.249 727.798C197.799 727.483 216.345 727.168 234.01 727.072C251.675 726.978 268.459 727.104 289.132 727.408C309.804 727.717 334.363 728.211 359.108 728.457C383.853 728.703 408.782 728.703 432.54 728.582C456.297 728.457 478.882 728.211 501.59 728.088C524.299 727.963 547.13 727.963 570.394 728.088C593.658 728.214 617.353 728.46 643.764 728.521C670.175 728.584 699.301 728.458 718.554 728.522C737.806 728.585 747.186 728.831 752.428 726.919C757.671 725.006 758.782 720.932 759.584 707.782C760.387 694.632 760.88 672.407 762.485 653.144C764.089 633.881 766.804 617.583 773.221 598.567C779.639 579.55 789.759 557.819 807.038 536.58C824.317 515.341 848.752 494.597 868.87 481.262C888.988 467.926 904.785 461.999 918.731 458.172C932.678 454.344 944.772 452.615 959.953 451.628C975.133 450.64 993.398 450.393 1021.66 450.27C1049.92 450.146 1088.18 450.146 1126.81 450.023C1165.44 449.899 1204.44 449.652 1244.05 449.776C1283.67 449.899 1323.9 450.393 1360.06 450.269C1396.22 450.146 1428.31 449.405 1458.92 449.035C1489.53 448.664 1518.65 448.664 1545.19 448.788C1571.72 448.912 1595.66 449.158 1623.8 449.282C1651.94 449.406 1684.27 449.406 1715.99 449.406C1747.71 449.406 1778.81 449.406 1809.66 449.53C1840.52 449.653 1871.12 449.9 1899.88 450.147C1928.64 450.394 1955.54 450.641 1979.48 450.641C2003.43 450.641 2024.41 450.394 2045.38 450.147" stroke="#F9F9FB" stroke-width="0.999999"/>
<path d="M224.146 486.075C227.918 487.256 231.685 488.435 251.196 489.024C270.707 489.612 305.963 489.612 359.022 489.263C412.081 488.914 482.941 488.215 554.414 488.303C625.887 488.391 697.968 489.263 737.937 489.35C777.905 489.438 785.759 488.739 796.231 486.905C806.703 485.072 819.792 482.103 831.137 477.912C842.481 473.721 852.08 468.308 860.981 463.593C869.883 458.878 878.086 454.862 890.129 450.584C902.173 446.306 918.055 441.765 936.469 438.186C954.883 434.606 975.827 431.987 995.026 430.066C1014.23 428.145 1031.68 426.923 1049.22 425.613C1066.76 424.304 1084.39 422.907 1096.87 416.708C1109.34 410.51 1116.67 399.509 1126.45 386.674C1136.22 373.839 1148.44 359.171 1160.31 343.979C1172.18 328.787 1183.69 313.071 1196.61 297.005C1209.53 280.94 1223.84 264.526 1231.69 255.109C1239.54 245.693 1240.93 243.273 1241.75 239.348C1242.57 235.423 1242.81 229.99 1241.21 225.73C1239.61 221.47 1236.15 218.383 1231.28 216.591C1226.4 214.799 1220.11 214.305 1208.45 214.099C1196.79 213.894 1179.77 213.977 1157.48 214.28C1135.18 214.584 1107.6 215.108 1079.59 215.282C1051.58 215.457 1023.13 215.282 997.993 215.195C972.86 215.107 951.044 215.107 932.543 215.282C914.042 215.457 898.858 215.806 867.876 227.244C836.895 238.681 790.12 261.207 743.082 284.956C696.045 308.705 648.747 333.675 621.257 348.081C593.768 362.487 586.089 366.329 583.209 369.999C580.33 373.669 582.25 377.161 583.996 379.693C585.742 382.225 587.313 383.796 594.644 384.58C601.974 385.364 615.064 385.364 644.037 385.189C673.01 385.014 717.865 384.665 763.855 384.49C809.846 384.316 856.969 384.316 892.924 384.316C928.878 384.316 953.662 384.316 978.708 384.141C1003.75 383.966 1029.06 383.617 1051.05 383.705C1073.04 383.792 1091.72 384.316 1104.11 383.879C1116.5 383.442 1122.61 382.045 1128.37 378.466C1134.13 374.886 1139.54 369.124 1144.95 363.361" stroke="#F9F9FB" stroke-width="0.999999"/>
<path d="M1484.46 222.58C1487.05 229.868 1492.24 244.438 1497.91 259.996C1503.59 275.554 1509.76 292.099 1516.67 311.238C1523.58 330.377 1531.24 352.109 1535.93 365.074C1540.62 378.039 1542.34 382.237 1548.15 383.963C1553.95 385.689 1563.82 384.948 1585.54 384.825C1607.26 384.701 1640.83 385.195 1682.67 384.948C1724.51 384.701 1774.61 383.714 1809.42 383.59C1844.22 383.466 1863.72 384.208 1876.06 383.96C1888.4 383.713 1893.58 382.478 1896.17 380.134C1898.76 377.791 1898.76 374.334 1897.78 371C1896.79 367.667 1894.82 364.456 1884.57 356.676C1874.33 348.896 1855.82 336.549 1839.65 326.671C1823.49 316.792 1809.66 309.384 1791.03 300.617C1772.39 291.849 1748.94 281.725 1727.96 273.328C1706.98 264.931 1688.47 258.264 1668.11 251.473C1647.74 244.681 1625.53 237.767 1606.77 233.074C1588.01 228.382 1572.71 225.912 1556.66 223.689C1540.62 221.467 1523.83 219.491 1511.25 218.133C1498.66 216.774 1490.27 216.034 1486.07 215.663C1481.87 215.292 1481.87 215.292 1484.46 222.58Z" stroke="#F9F9FB" stroke-width="0.999999"/>
<mask id="mask0_764_1166" style="mask-type:luminance" maskUnits="userSpaceOnUse" x="1184" y="211" width="324" height="177">
<path d="M1184.46 211.888V387.093H1217.55C1217.57 386.404 1217.78 385.543 1217.85 385.246C1218.05 384.348 1218.2 383.443 1218.44 382.555C1218.61 381.938 1218.79 381.321 1219 380.716C1219.15 380.265 1219.37 379.84 1219.54 379.395C1219.56 379.348 1219.56 379.358 1219.57 379.314C1219.56 379.209 1219.55 379.098 1219.54 378.998C1219.5 378.558 1219.51 378.117 1219.54 377.677C1219.54 377.624 1219.55 377.569 1219.56 377.515C1219.55 377.502 1219.55 377.494 1219.55 377.482C1219.51 377.139 1219.58 376.997 1219.72 376.947C1219.72 376.955 1219.73 376.881 1219.73 376.898C1219.73 376.915 1219.72 376.931 1219.72 376.947C1219.85 376.903 1220.07 376.955 1220.33 377.06C1220.46 376.679 1220.63 376.289 1220.89 375.431C1221 375.101 1221.12 374.772 1221.23 374.442C1221.21 374.289 1221.2 374.175 1221.36 373.762C1221.38 373.71 1221.38 373.732 1221.41 373.68C1221.42 373.676 1221.4 373.66 1221.41 373.655C1221.42 373.654 1221.42 373.647 1221.43 373.647C1221.6 373.362 1221.89 373.011 1221.7 373.217C1221.72 373.2 1221.59 373.417 1221.49 373.63C1222.35 373.444 1223.94 372.78 1223.99 373.613C1224.03 374.305 1224.02 374.256 1223.83 374.642C1223.84 375.344 1223.86 376.048 1223.79 376.749C1223.77 377.364 1223.74 377.974 1223.71 378.588C1223.67 379.324 1223.66 380.068 1223.66 380.809C1223.9 380.08 1223.88 380.24 1224.21 379.075C1224.28 378.832 1224.34 378.582 1224.4 378.337C1224.53 377.812 1224.75 377.454 1225.01 377.195C1225.21 376.489 1225.4 375.756 1225.6 375.064C1225.79 375.205 1225.87 375.217 1226.04 375.331C1226.21 374.799 1226.39 374.266 1226.59 373.743C1226.68 373.509 1226.66 373.022 1226.91 373.063C1226.93 373.066 1226.93 373.067 1226.95 373.071C1226.95 372.746 1226.94 372.421 1226.96 372.099C1226.8 372.012 1226.63 371.917 1226.47 371.847C1226.43 371.217 1226.39 371.073 1226.57 370.389C1226.59 370.32 1226.61 370.263 1226.63 370.194C1226.59 369.836 1226.63 369.567 1226.85 369.505C1227.1 368.851 1227.5 368.521 1228.33 369.003C1228.43 368.731 1228.53 368.463 1228.61 368.185C1228.7 367.883 1228.34 367.544 1228.58 367.245C1228.86 366.382 1228.9 366.018 1229.62 366.086C1229.68 365.951 1229.74 365.815 1229.79 365.681C1230.01 365.171 1230.25 364.671 1230.49 364.174C1230.57 364.015 1230.59 363.653 1230.76 363.72C1232.32 364.372 1232.82 364.63 1232.89 365.025C1232.94 365.045 1232.92 365.037 1232.98 365.058C1233.02 365.075 1232.95 365.138 1232.89 365.188C1232.87 365.455 1232.75 365.774 1232.55 366.33C1232.63 367.064 1232.59 367.773 1232.57 368.518C1232.56 368.861 1232.58 369.208 1232.52 369.547C1232.34 370.731 1232.2 371 1231.85 372.002C1231.78 372.159 1231.66 372.431 1231.57 372.667C1231.7 372.813 1231.7 372.872 1231.49 372.837C1231.37 373.149 1231.24 373.396 1231.03 373.639C1230.98 374.109 1230.96 374.564 1230.91 375.049C1230.57 376.861 1230.24 378.674 1229.9 380.486C1229.95 380.519 1229.99 380.557 1230.03 380.591C1230.05 380.543 1230.05 380.544 1230.07 380.494C1230.49 379.229 1230.86 377.845 1231.78 376.824C1231.94 376.64 1232.14 376.488 1232.32 376.321C1232.45 376.232 1232.58 376.145 1232.72 376.054C1233.26 375.678 1232.5 375.95 1232.42 376.88C1232.41 377.021 1232.47 377.194 1232.53 377.35C1233.21 376.839 1233.75 376.033 1234.58 375.827C1234.61 375.819 1234.62 375.879 1234.64 375.883C1234.66 375.832 1234.69 375.78 1234.71 375.73C1234.99 374.951 1235.57 374.108 1236.38 373.809C1236.62 373.725 1236.91 373.561 1237.12 373.696C1237.65 374.038 1237.96 374.638 1238.38 375.106C1238.33 375.346 1238.22 375.573 1238.21 375.82C1238.21 376.1 1238.22 376.382 1238.22 376.662C1238.23 376.66 1238.23 376.658 1238.24 376.654C1238.53 376.547 1238.85 376.547 1239.16 376.492C1239.58 376.698 1240.25 376.683 1240.42 377.116C1240.47 377.254 1240.46 377.352 1240.49 377.472C1240.51 377.442 1240.53 377.412 1240.56 377.383C1240.78 377.087 1241.02 376.808 1241.26 376.524C1241.35 376.414 1241.42 376.126 1241.54 376.2C1241.59 376.225 1241.67 376.278 1241.72 376.305C1241.74 376.313 1241.78 376.334 1241.8 376.345C1242.43 376.684 1243.51 377.206 1243.47 377.877C1243.49 377.894 1243.49 377.885 1243.51 377.902C1243.51 377.91 1243.49 377.919 1243.49 377.927C1243.48 377.96 1243.52 377.99 1243.51 378.024C1243.56 378.266 1243.62 378.44 1243.57 378.713C1243.55 378.851 1243.53 378.859 1243.51 378.981C1244.01 378.822 1244.52 378.665 1245.03 378.511C1245.73 378.298 1246.42 378.053 1247.13 377.887C1247.31 377.843 1247.55 377.777 1247.71 377.887C1248.23 378.25 1249.04 378.781 1248.81 379.516C1248.74 379.749 1248.61 379.961 1248.5 380.18C1248.36 380.357 1248.19 380.495 1248.03 380.65C1247.99 380.827 1247.96 381.013 1247.86 381.169C1247.79 381.288 1247.7 381.358 1247.61 381.444C1247.74 381.407 1247.88 381.355 1247.91 381.444C1247.98 381.617 1247.74 381.773 1247.63 381.922C1246.97 382.825 1246.6 383.226 1245.91 384.029C1245.31 384.718 1244.74 385.467 1243.96 385.974C1243.69 386.419 1243.48 386.742 1243.27 387.092H1507.05V211.89L1184.46 211.888ZM1231.49 372.837C1231.52 372.774 1231.54 372.727 1231.57 372.667C1231.5 372.598 1231.47 372.543 1231.3 372.419C1231.24 372.378 1231.2 372.32 1231.15 372.273C1231.13 372.422 1231.12 372.577 1231.1 372.727C1231.22 372.76 1231.41 372.823 1231.49 372.837ZM1221.39 373.901C1221.38 373.956 1221.36 374.005 1221.36 374.047C1221.37 374.018 1221.38 373.994 1221.39 373.966C1221.4 373.945 1221.4 373.928 1221.39 373.901ZM1223.98 373.999C1223.96 374.039 1223.96 374.08 1223.94 374.121C1223.95 374.121 1223.96 374.121 1223.96 374.121C1224 374.119 1223.99 373.96 1223.98 373.999ZM1223.85 374.477C1223.84 374.497 1223.84 374.521 1223.83 374.541C1223.83 374.533 1223.84 374.524 1223.85 374.516C1223.85 374.503 1223.85 374.497 1223.85 374.477ZM1235.83 374.817C1235.84 374.684 1235.8 375.081 1235.79 375.214C1235.8 375.222 1235.81 375.222 1235.82 375.231C1235.82 375.093 1235.83 374.955 1235.83 374.817ZM1237.57 376.057C1237.57 376.048 1237.52 376.074 1237.42 376.162C1237.41 376.17 1237.4 376.179 1237.4 376.187C1237.43 376.166 1237.47 376.174 1237.49 376.154C1237.55 376.105 1237.58 376.065 1237.57 376.057ZM1219.56 377.621C1219.56 377.638 1219.56 377.654 1219.55 377.669C1219.56 377.694 1219.56 377.702 1219.57 377.743C1219.56 377.702 1219.57 377.661 1219.56 377.621ZM1239.32 379.022C1239.3 379.026 1239.3 379.035 1239.29 379.04C1239.34 379.057 1239.33 379.052 1239.39 379.073C1239.36 379.052 1239.34 379.013 1239.32 379.022ZM1248.2 380.116C1248.16 380.218 1248.12 380.324 1248.1 380.432C1248.12 380.412 1248.15 380.399 1248.18 380.376C1248.24 380.318 1248.23 380.036 1248.2 380.116ZM1243.04 381.891C1242.97 381.916 1242.9 381.946 1242.82 381.972C1242.81 382.041 1242.8 382.109 1242.78 382.183C1242.87 382.086 1242.95 381.986 1243.04 381.891ZM1239.57 384.549C1239.55 384.604 1239.52 384.657 1239.5 384.711C1239.16 385.499 1238.85 386.3 1238.52 387.093H1238.97C1239.17 386.243 1239.38 385.383 1239.57 384.549ZM1235.43 384.994C1235.3 385.003 1235.17 385.019 1235.04 385.027C1235.02 385.04 1235.01 385.057 1234.99 385.068C1234.77 385.184 1234.5 385.337 1234.26 385.368C1234.16 385.81 1234.01 386.382 1233.84 387.094H1235.19C1235.27 386.395 1235.37 385.695 1235.43 384.994ZM1226.62 385.294C1226.3 385.938 1226.04 386.438 1225.77 386.988C1225.77 387.025 1225.75 387.062 1225.74 387.093H1226.53C1226.54 386.603 1226.6 385.852 1226.62 385.294ZM1230.81 386.55C1230.74 386.765 1230.7 386.9 1230.63 387.093H1231.02C1230.95 386.916 1230.87 386.74 1230.81 386.55ZM1220.41 386.591C1220.4 386.647 1220.39 386.701 1220.37 386.753C1220.36 386.774 1220.31 386.771 1220.31 386.794C1220.3 386.894 1220.32 386.994 1220.32 387.094H1220.48C1220.46 386.926 1220.43 386.759 1220.41 386.591ZM1217.75 386.94C1217.75 386.944 1217.74 386.952 1217.74 386.957C1217.74 387.004 1217.73 387.122 1217.73 387.095C1217.74 387.043 1217.74 386.991 1217.75 386.94Z" fill="white"/>
</mask>
<g mask="url(#mask0_764_1166)">
<path d="M1442.99 215.663C1432.26 215.292 1410.79 214.551 1391.53 214.181C1372.28 213.81 1355.25 213.81 1341.67 214.921C1328.1 216.032 1317.98 218.255 1309.09 220.971C1300.2 223.688 1292.55 226.898 1279.47 240.605C1266.39 254.311 1247.87 278.512 1232.45 298.516C1217.02 318.519 1204.68 334.323 1197.03 345.066C1189.37 355.809 1186.41 361.489 1186.54 366.553C1186.66 371.617 1189.87 376.062 1194.69 378.777C1199.5 381.491 1205.92 382.479 1218.63 382.849C1231.34 383.219 1250.35 382.972 1281.94 383.343C1313.54 383.713 1357.72 384.701 1392.03 384.948C1426.34 385.195 1450.77 384.701 1469.41 384.454C1488.04 384.207 1500.88 384.207 1504.09 376.06C1507.29 367.913 1500.88 351.614 1494.09 333.834C1487.3 316.053 1480.14 296.791 1473.72 279.011C1467.31 261.23 1461.63 244.931 1458.42 234.683C1455.21 224.434 1454.47 220.236 1454.1 218.134C1453.73 216.033 1453.73 216.033 1442.99 215.663Z" stroke="#F9F9FB" stroke-width="0.999999"/>
</g>
<path d="M1214.41 405.884C1214.76 401.258 1215.46 392.003 1216.86 381.525C1218.25 371.048 1220.35 359.348 1224.54 348.957C1228.73 338.566 1235.01 329.486 1242.17 322.5C1249.32 315.514 1257.35 310.625 1263.55 307.482C1269.74 304.339 1274.11 302.942 1281.18 302.331C1288.25 301.72 1298.02 301.895 1307.88 301.982C1317.74 302.07 1327.69 302.07 1334.24 302.244C1340.78 302.419 1343.92 302.768 1346.45 303.643C1348.99 304.517 1350.91 305.914 1352.39 309.058C1353.87 312.202 1354.92 317.092 1355.26 323.814C1355.61 330.537 1355.26 339.093 1355.09 345.991C1354.91 352.888 1354.91 358.127 1353.78 362.84C1352.65 367.554 1350.38 371.745 1347.58 374.974C1344.79 378.204 1341.48 380.474 1326.29 381.871C1311.11 383.268 1284.06 383.792 1268.09 384.054C1252.12 384.316 1247.23 384.316 1244.79 387.025C1242.34 389.733 1242.34 395.146 1241.55 400.646C1240.77 406.146 1239.2 411.734 1235.71 414.701C1232.22 417.668 1226.81 418.018 1222.88 416.885C1218.96 415.752 1216.51 413.133 1215.29 411.821C1214.07 410.509 1214.07 410.509 1214.41 405.884Z" stroke="#F9F9FB" stroke-width="0.999999"/>
<path d="M554.759 565.922C558.338 562.604 563.923 557.54 570.468 552.301C577.013 547.062 584.518 541.649 592.373 536.323C600.227 530.997 608.43 525.758 616.721 521.305C625.012 516.852 633.389 513.185 640.808 510.566C648.226 507.947 654.684 506.375 663.76 505.677C672.837 504.979 684.53 505.154 695.962 505.241C707.395 505.329 718.565 505.329 730.52 505.241C742.476 505.153 755.217 504.979 764.468 505.241C773.718 505.503 779.478 506.202 782.705 508.387C785.932 510.572 786.63 514.239 786.193 518.079C785.755 521.92 784.185 525.936 780.346 530.475C776.506 535.014 770.398 540.078 763.591 545.491C756.784 550.904 749.279 556.667 743.084 560.683C736.888 564.699 732.001 566.969 727.201 569.588C722.401 572.208 717.689 575.176 700.411 576.748C683.133 578.32 653.288 578.495 630.424 578.495C607.56 578.495 591.678 578.321 579.635 578.145C567.592 577.971 559.389 577.795 554.763 576.837C550.137 575.879 549.09 574.133 549.35 572.471C549.611 570.81 551.181 569.24 554.759 565.922Z" stroke="#F9F9FB" stroke-width="0.999999"/>
<path d="M221.747 506.728C222.708 511.271 224.628 520.351 227.769 532.924C230.911 545.497 235.274 561.562 237.63 570.555C239.986 579.548 240.336 581.468 241.908 584.262C243.48 587.056 246.272 590.723 249.066 593.429C251.859 596.135 254.651 597.881 264.163 598.927C273.675 599.973 289.907 600.323 308.582 600.409C327.258 600.503 348.376 600.315 375.342 600.315C402.308 600.315 435.12 600.489 454.319 600.489C473.518 600.489 479.103 600.315 483.464 598.83C487.826 597.345 490.967 594.552 496.116 588.702C501.264 582.853 508.42 573.947 515.314 565.391C522.208 556.834 528.841 548.627 534.251 541.293C539.662 533.959 543.85 527.498 546.556 522.522C549.261 517.546 550.483 514.054 550.484 511.174C550.486 508.294 549.264 506.024 546.735 503.927C544.205 501.831 540.365 499.91 530.067 499.035C519.769 498.161 503.014 498.336 451.787 498.423C400.56 498.511 314.865 498.511 270.708 498.597C226.55 498.685 223.932 498.859 222.534 499.472C221.135 500.085 220.961 501.133 220.874 501.655C220.788 502.177 220.786 502.186 221.747 506.728Z" stroke="#F9F9FB" stroke-width="0.999999"/>
<path d="M194.606 532.048C196.178 534.67 199.319 539.908 203.16 545.409C207 550.909 211.538 556.672 212.583 560.598C213.629 564.525 211.185 566.62 207.522 567.494C203.859 568.367 198.972 568.017 193.997 567.843C189.023 567.669 183.962 567.669 182.039 565.051C180.117 562.433 181.339 557.194 183.259 551.169C185.178 545.144 187.796 538.334 189.542 534.579C191.289 530.823 192.161 530.125 192.597 529.776C193.033 529.426 193.033 529.426 194.606 532.048Z" stroke="#F9F9FB" stroke-width="0.999999"/>
<path d="M1002.68 815.329C1051.33 815.329 1090.77 768.888 1090.77 711.6C1090.77 654.313 1051.33 607.872 1002.68 607.872C954.033 607.872 914.595 654.313 914.595 711.6C914.595 768.888 954.033 815.329 1002.68 815.329Z" stroke="#F9F9FB" stroke-width="1.00157"/>
</svg>
