<svg width="1084" height="496" viewBox="0 0 1084 496" fill="none" xmlns="http://www.w3.org/2000/svg">
<path d="M285.255 257.964C289.365 254.431 300.327 243.902 304.925 241.55C309.523 239.198 314.802 237.593 320.588 236.188C326.375 234.783 332.67 233.579 338.868 232.592C345.067 231.605 351.168 230.835 357.33 230.223C363.492 229.61 369.714 229.155 375.645 228.596C381.576 228.036 387.215 227.373 394.317 226.398C401.418 225.423 409.981 224.136 419.23 222.764C428.479 221.392 438.414 219.936 447.25 217.39C456.085 214.844 463.82 211.209 472.235 207.564C480.65 203.918 489.744 200.264 498.375 196.715C507.007 193.166 515.175 189.724 529.047 184.189C542.92 178.653 562.494 171.024 576.652 166.423C590.81 161.823 599.551 160.251 607.81 159.766C616.07 159.281 623.847 159.884 634.446 160.911C645.045 161.939 658.465 163.39 671.751 164.678C685.037 165.966 698.188 167.089 712.309 168.306C726.431 169.524 741.522 170.835 757.868 172.42C774.215 174.004 791.815 175.861 807.549 177.537C823.284 179.213 837.152 180.709 848.372 182.326C859.592 183.942 868.162 185.68 875.884 187.638C883.605 189.596 890.475 191.775 898.557 194.675C906.639 197.575 915.931 201.197 930.359 207.813C944.786 214.428 964.347 224.035 978.756 232.388C993.166 240.74 1002.42 247.837 1010.5 254.669C1018.58 261.5 1025.47 268.066 1031.38 274.006C1037.28 279.946 1042.19 285.261 1046.93 288.441C1051.67 291.621 1056.24 292.669 1059.86 294.986C1063.48 297.304 1066.14 300.889 1067.94 305.6C1069.75 310.311 1070.69 316.148 1070.77 323.111C1070.85 330.074 1070.06 338.164 1069.31 345.953C1068.55 353.743 1067.83 361.233 1066.92 370.596C1066.01 379.959 1064.92 391.194 1063.89 401.074C1062.86 410.954 1061.88 419.478 1060.19 425.211C1058.51 430.944 1056.11 433.887 1053.29 436.054C1050.47 438.221 1047.21 439.611 1044.99 439.684C1042.77 439.756 1041.59 438.507 1041.07 436.723C1040.55 434.939 1040.7 432.619 1041.02 428.837C1041.35 425.055 1041.86 419.814 1042.15 414.758C1042.45 409.703 1042.53 404.843 1042.19 400.394C1041.85 395.945 1041.09 391.912 1040 388.173C1038.9 384.435 1037.47 380.991 1035.87 377.498C1034.26 374.004 1032.47 370.459 1030.18 366.894C1027.88 363.329 1025.09 359.748 1022.12 356.656C1019.14 353.564 1015.99 350.96 1012.28 348.708C1008.57 346.457 1004.32 344.563 1000.31 343.078C996.299 341.593 992.529 340.519 988.416 339.854C984.302 339.19 979.847 338.937 975.622 339.089C971.397 339.241 967.407 339.798 963.237 340.781C959.067 341.764 954.717 343.174 950.745 345.115C946.772 347.056 943.183 349.528 939.359 352.465C935.536 355.401 931.476 358.805 927.739 363.281C924.002 367.757 920.586 373.309 918.404 377.856C916.222 382.404 915.27 385.951 914.666 389.911C914.062 393.871 913.805 398.239 913.258 403.452C912.712 408.664 911.872 414.712 909.289 419.72C906.706 424.728 902.381 428.692 898.139 430.686C893.898 432.681 889.74 432.705 886.669 432.515C883.598 432.324 881.613 431.918 878.414 431.394C875.215 430.87 870.802 430.229 861.729 429.296C852.656 428.362 838.924 427.14 822.927 425.642C806.93 424.146 788.669 422.376 766.165 420.408C743.661 418.441 716.914 416.276 702.584 414.62C688.255 412.965 686.341 411.817 684.098 409.675C681.855 407.534 679.282 404.398 678.378 399.98C677.473 395.561 678.239 389.862 678.679 383.115C679.12 376.368 679.236 368.575 679.062 362.677C678.888 356.78 678.424 352.778 677.284 348.605C676.143 344.431 674.327 340.085 671.275 335.299C668.223 330.512 663.936 325.285 659.407 320.89C654.879 316.494 650.11 312.932 645.407 310.337C640.704 307.742 636.067 306.117 630.29 304.701C624.514 303.286 617.599 302.081 611.203 302.103C604.808 302.124 598.934 303.372 592.913 305.569C586.893 307.765 580.729 310.91 575.551 314.311C570.373 317.712 566.183 321.369 562.629 326.157C559.074 330.946 556.157 336.864 554.013 341.949C551.868 347.034 550.497 351.285 549.363 356.949C548.228 362.613 547.329 369.69 546.604 374.966C545.88 380.241 545.33 383.716 543.856 386.834C542.381 389.952 539.983 392.713 536.79 394.328C533.598 395.943 529.611 396.412 523.458 396.136C517.305 395.861 508.986 394.841 497.971 393.612C486.956 392.384 473.244 390.948 459.426 389.502C445.609 388.056 431.686 386.6 416.744 385.205C401.803 383.811 385.844 382.478 369.942 381.097C354.04 379.716 338.197 378.287 325.366 377.098" stroke="#F9F9FB" stroke-width="0.999999"/>
<path d="M606.53 450.905C639.144 454.066 668.608 425.402 672.342 386.883C676.075 348.363 652.663 314.575 620.05 311.414C587.436 308.253 557.972 336.917 554.238 375.436C550.505 413.956 573.917 447.744 606.53 450.905Z" stroke="#F9F9FB" stroke-width="1.0094"/>
<path d="M970.759 485.565C1003.37 488.725 1032.84 460.062 1036.57 421.542C1040.3 383.022 1016.89 349.234 984.278 346.073C951.665 342.912 922.2 371.576 918.467 410.095C914.733 448.615 938.145 482.404 970.759 485.565Z" stroke="#F9F9FB" stroke-width="1.0094"/>
<path d="M325.255 381.964C325.99 384.493 328.308 388.98 329.98 391.939C331.652 394.899 333.69 397.969 336.15 401.345C338.611 404.721 341.494 408.403 344.454 411.676C347.414 414.949 350.451 417.814 353.54 420.154C356.628 422.495 359.767 424.311 363.132 425.733C366.498 427.155 370.09 428.184 373.579 428.711C377.069 429.238 380.457 429.264 383.825 429.099C387.194 428.934 390.543 428.578 393.936 427.773C397.329 426.968 400.765 425.713 404.644 423.783C408.523 421.853 412.843 419.248 416.391 416.454C419.939 413.661 422.714 410.679 425.585 407.101C428.455 403.524 431.421 399.35 433.528 395.888C435.634 392.425 436.88 389.673 437.503 388.297C438.126 386.92 438.126 386.923 437.904 387.658C437.682 388.393 437.238 389.862 436.095 391.944C434.951 394.025 433.108 396.719 431.384 399.35C429.66 401.98 428.055 404.546 425.82 407.391C423.586 410.237 420.722 413.361 417.569 415.966C414.416 418.571 410.974 420.657 407.122 422.703C403.27 424.749 399.007 426.755 393.145 427.775C387.283 428.794 379.821 428.827 374.422 428.569C369.023 428.307 365.686 427.757 362.409 427.364C359.132 426.971 355.915 426.734 352.892 426.441C349.87 426.148 347.041 425.799 343.894 425.229C340.747 424.66 337.283 423.87 333.915 422.863C330.547 421.857 326.296 420.62 323.255 418.964" stroke="#F9F9FB" stroke-width="0.999999"/>
<path d="M827.271 426.728C826.648 428.105 825.401 430.857 823.295 434.32C821.189 437.782 818.223 441.955 815.353 445.533C812.482 449.11 809.707 452.092 806.159 454.886C802.611 457.68 798.29 460.285 794.412 462.215C790.533 464.145 787.097 465.399 783.704 466.205C780.311 467.01 776.962 467.366 773.593 467.531C770.225 467.696 766.837 467.67 763.347 467.143C759.857 466.616 756.266 465.587 752.9 464.165C749.535 462.743 746.396 460.927 743.307 458.586C740.219 456.246 737.182 453.381 734.222 450.108C731.261 446.834 728.379 443.153 725.918 439.777C723.458 436.401 721.42 433.33 719.748 430.371C718.075 427.412 716.769 424.563 716.034 422.035C715.3 419.506 715.137 417.298 712.959 416.065C710.781 414.833 706.587 414.577 701.217 414.019C695.847 413.458 689.3 412.599 686.644 414.347C683.988 416.094 685.223 420.447 686.952 424.773C688.68 429.099 690.9 433.397 693.044 436.931C695.188 440.465 697.255 443.236 699.291 445.55C701.327 447.865 703.332 449.722 705.74 451.694C708.148 453.666 710.96 455.753 714.001 457.409C717.043 459.064 720.314 460.288 723.682 461.295C727.05 462.302 730.515 463.091 733.662 463.661C736.808 464.231 739.637 464.58 742.66 464.873C745.683 465.166 748.9 465.402 752.177 465.796C755.454 466.189 758.791 466.739 764.19 467.001C769.589 467.259 777.051 467.226 782.913 466.207C788.775 465.187 793.037 463.181 796.89 461.135C800.742 459.089 804.184 457.003 807.336 454.398C810.489 451.793 813.354 448.668 815.588 445.823C817.823 442.978 819.428 440.412 821.152 437.781C822.876 435.151 824.719 432.457 825.863 430.375C827.006 428.294 827.45 426.825 827.672 426.09C827.894 425.355 827.894 425.352 827.271 426.728Z" stroke="#F9F9FB" stroke-width="0.999999"/>
<path d="M961.739 484.922C959.643 484.794 955.448 484.539 950.888 484.172C946.328 483.806 941.402 483.328 937.457 482.83C933.512 482.334 930.548 481.82 927.18 480.814C923.812 479.807 920.04 478.307 916.632 476.541C913.225 474.774 910.183 472.74 907.591 470.713C905 468.685 902.861 466.663 900.337 463.546C897.814 460.428 894.907 456.215 892.808 452.61C890.709 449.004 889.417 446.006 888.429 443.377C887.44 440.749 886.755 438.49 886.358 436.75C885.961 435.011 885.854 433.79 887.811 433.034C889.769 432.278 893.79 431.987 896.663 431.094C899.537 430.2 901.264 428.704 902.961 427.13C904.658 425.556 906.325 423.903 907.837 421.517C909.349 419.131 910.706 416.012 911.683 411.759C912.66 407.507 913.258 402.122 913.893 397.118C914.529 392.114 915.203 387.491 916.568 383.125C917.933 378.758 919.988 374.648 921.883 371.429C923.777 368.21 925.509 365.883 927.465 363.578C929.422 361.272 931.602 358.988 934.524 356.436C937.446 353.884 941.11 351.064 945.084 348.538C949.058 346.012 953.343 343.782 957.525 342.221C961.708 340.661 965.787 339.771 970.282 339.261C974.776 338.752 979.686 338.623 984.538 339.093C989.389 339.564 994.183 340.633 998.601 342.082C1003.02 343.532 1007.06 345.36 1010.7 347.452C1014.34 349.544 1017.58 351.899 1020.59 354.648C1023.6 357.397 1026.38 360.54 1028.98 364.421C1031.58 368.302 1034 372.921 1035.98 377.31C1037.97 381.699 1039.52 385.856 1040.52 389.923C1041.52 393.989 1041.97 397.963 1042.14 403.159C1042.31 408.355 1042.22 414.772 1042.05 420.01C1041.88 425.248 1041.64 429.307 1041.69 432.299C1041.74 435.29 1042.08 437.213 1042.84 438.269C1043.61 439.325 1044.8 439.516 1045.92 439.587C1047.04 439.655 1048.1 439.609 1047.84 439.924C1047.59 440.239 1046.01 440.919 1044.33 441.549C1042.65 442.18 1040.86 442.763 1038.9 443.215C1036.93 443.668 1034.79 443.989 1033.39 444.043C1032 444.097 1031.34 443.885 1031.8 442.263C1032.25 440.645 1033.83 437.622 1034.8 434.163C1035.78 430.705 1036.16 426.81 1036.47 422.417C1036.78 418.025 1037.03 413.135 1036.61 408.104C1036.2 403.074 1035.12 397.904 1034.03 393.565C1032.94 389.226 1031.85 385.718 1030.22 382.309C1028.6 378.9 1026.43 375.59 1024.17 372.045C1021.92 368.5 1019.57 364.719 1017.22 361.844C1014.86 358.969 1012.49 357 1009.62 355.134C1006.75 353.268 1003.38 351.505 999.2 349.89C995.024 348.275 990.043 346.81 985.131 346.182C980.219 345.555 975.377 345.766 970.231 346.779C965.084 347.792 959.635 349.608 954.932 351.874C950.229 354.14 946.274 356.857 942.835 360.077C939.396 363.297 936.474 367.021 933.902 370.628C931.329 374.235 929.108 377.724 927.267 381.175C925.425 384.626 923.964 388.037 922.602 391.988C921.24 395.939 919.976 400.428 919.191 405.418C918.407 410.408 918.1 415.897 918.18 420.517C918.26 425.137 918.726 428.887 919.493 432.628C920.261 436.369 921.331 440.102 922.718 444.054C924.106 448.007 925.811 452.179 927.566 455.449C929.321 458.719 931.126 461.086 933.14 463.625C935.155 466.164 937.378 468.875 940.045 471.288C942.712 473.7 945.822 475.816 948.666 477.566C951.51 479.316 954.088 480.7 956.572 481.886C959.057 483.071 961.447 484.059 962.641 484.553C963.836 485.046 963.835 485.05 961.739 484.922Z" stroke="#F9F9FB" stroke-width="0.999999"/>
<path d="M596.252 449.489C594.005 449.325 589.508 448.996 584.933 448.659C580.357 448.323 575.703 447.978 572.121 447.552C568.54 447.125 566.033 446.614 563.038 445.629C560.044 444.644 556.563 443.184 553.461 441.387C550.358 439.59 547.635 437.455 545.083 435.203C542.531 432.951 540.15 430.582 537.8 427.895C535.45 425.208 533.131 422.203 531.209 418.943C529.287 415.683 527.764 412.167 526.635 409.518C525.507 406.87 524.774 405.088 524.177 402.998C523.58 400.909 523.12 398.512 524.186 397.412C525.252 396.311 527.843 396.509 530.469 396.068C533.095 395.627 535.757 394.549 538.068 392.956C540.38 391.362 542.342 389.254 543.649 386.761C544.957 384.269 545.608 381.392 546.127 377.967C546.645 374.543 547.03 370.571 547.754 366.123C548.478 361.676 549.541 356.754 550.971 351.893C552.401 347.033 554.198 342.235 556.709 337.213C559.22 332.19 562.446 326.943 565.728 323.037C569.01 319.131 572.348 316.568 575.422 314.54C578.495 312.512 581.304 311.02 585.122 309.279C588.94 307.537 593.768 305.546 597.809 304.253C601.85 302.961 605.104 302.367 609.114 302.222C613.124 302.076 617.889 302.377 622.3 303.046C626.71 303.714 630.765 304.748 634.713 306.067C638.661 307.385 642.501 308.987 646.464 311.242C650.428 313.498 654.514 316.407 657.806 319.265C661.099 322.124 663.597 324.932 665.576 327.316C667.556 329.7 669.018 331.659 670.623 334.06C672.228 336.461 673.977 339.304 675.37 342.513C676.764 345.722 677.802 349.298 678.446 353.37C679.09 357.442 679.34 362.01 679.39 366.719C679.439 371.429 679.289 376.279 679.017 380.182C678.745 384.085 678.352 387.041 678.201 389.699C678.05 392.358 678.141 394.719 678.56 397.272C678.978 399.825 679.725 402.571 680.765 404.756C681.806 406.942 683.14 408.568 684.135 409.573C685.129 410.578 685.785 410.962 684.339 411.035C682.893 411.108 679.347 410.872 676.682 410.614C674.017 410.355 672.232 410.076 670.696 409.713C669.16 409.35 667.871 408.905 667.784 407.32C667.696 405.734 668.813 403.009 669.791 398.961C670.77 394.913 671.61 389.541 672.092 385.391C672.575 381.242 672.699 378.313 672.515 374.714C672.331 371.114 671.839 366.843 670.939 362.666C670.039 358.489 668.73 354.406 667.486 351.025C666.243 347.643 665.064 344.963 663.317 341.826C661.57 338.69 659.255 335.097 656.63 331.956C654.004 328.814 651.069 326.124 647.98 323.632C644.892 321.141 641.652 318.849 638.45 317.255C635.248 315.661 632.085 314.767 628.956 313.795C625.827 312.824 622.732 311.775 619.692 311.266C616.651 310.758 613.664 310.789 610.536 311.181C607.408 311.572 604.139 312.325 601.263 313.142C598.386 313.959 595.904 314.841 592.742 316.406C589.58 317.971 585.74 320.218 582.303 322.692C578.867 325.166 575.835 327.866 573.391 330.543C570.947 333.22 569.092 335.873 567.108 339.022C565.125 342.172 563.014 345.816 561.204 349.65C559.394 353.485 557.885 357.509 556.913 360.943C555.941 364.377 555.505 367.222 555.032 371.56C554.558 375.898 554.046 381.729 553.971 386.079C553.896 390.429 554.257 393.297 554.724 396.176C555.191 399.055 555.764 401.944 556.775 405.249C557.787 408.555 559.238 412.278 560.846 415.748C562.454 419.218 564.22 422.437 565.855 425.081C567.49 427.725 568.994 429.796 571.061 432.108C573.128 434.42 575.757 436.973 578.15 438.942C580.543 440.912 582.7 442.297 585.157 443.604C587.614 444.911 590.371 446.141 592.646 447.136C594.92 448.132 596.711 448.893 597.605 449.274C598.499 449.654 598.5 449.653 596.252 449.489Z" stroke="#F9F9FB" stroke-width="0.999999"/>
<path d="M525.207 395.587C525.418 393.417 525.628 391.245 526.041 388.147C526.455 385.049 527.071 381.027 527.781 376.03C528.491 371.033 529.296 365.063 529.92 359.793C530.543 354.523 530.986 349.954 532.127 345.566C533.268 341.178 535.107 336.971 537.085 332.891C539.062 328.811 541.178 324.858 544.007 320.935C546.836 317.013 550.377 313.122 554.285 309.343C558.192 305.563 562.465 301.895 566.778 298.986C571.091 296.077 575.443 293.928 580.266 291.976C585.089 290.024 590.382 288.269 595.92 287.105C601.457 285.94 607.239 285.367 612.301 285.215C617.364 285.063 621.708 285.333 625.88 285.813C630.053 286.293 634.055 286.983 637.986 288.007C641.918 289.031 645.779 290.388 649.384 292.061C652.989 293.734 656.337 295.721 659.937 298.225C663.537 300.729 667.388 303.748 670.481 306.43C673.573 309.111 675.908 311.454 678.199 314.247C680.489 317.04 682.737 320.282 685.022 323.906C687.308 327.53 689.632 331.535 691.467 335.531C693.302 339.527 694.648 343.513 695.666 347.392C696.684 351.271 697.373 355.043 697.78 359.392C698.187 363.74 698.312 368.667 698.186 373.077C698.06 377.488 697.682 381.383 697.609 384.476C697.535 387.569 697.765 389.859 698.36 391.504C698.955 393.149 699.913 394.149 703.091 395.175C706.269 396.2 711.666 397.253 719.128 398.392C726.589 399.53 736.114 400.756 748.126 401.942C760.139 403.127 774.639 404.274 786.096 405.416C797.553 406.56 805.967 407.693 814.897 408.451C823.827 409.21 833.272 409.591 842.366 410.312C851.459 411.033 860.199 412.095 866.786 412.839C873.374 413.584 877.807 414.014 881.479 414.049C885.151 414.084 888.063 413.725 889.906 410.643C891.749 407.562 892.525 401.756 893.559 396.029C894.594 390.302 895.887 384.654 897.524 379.306C899.161 373.958 901.142 368.91 904.308 363.176C907.474 357.441 911.826 351.02 916.265 345.89C920.705 340.76 925.232 336.922 931.265 333.497C937.298 330.072 944.834 327.06 950.354 325.083C955.873 323.105 959.374 322.161 963.704 321.458C968.034 320.755 973.193 320.293 978.628 320.285C984.063 320.277 989.773 320.724 995.666 322.044C1001.56 323.364 1007.63 325.556 1012.48 327.79C1017.32 330.024 1020.94 332.299 1025.55 335.794C1030.17 339.289 1035.78 344.003 1040.31 348.451C1044.83 352.899 1048.26 357.081 1051.1 361.847C1053.94 366.613 1056.19 371.964 1057.7 376.761C1059.21 381.558 1059.97 385.802 1060.76 390.85C1061.54 395.898 1062.36 401.751 1063.18 407.602" stroke="#F9F9FB" stroke-width="0.999999"/>
<path d="M319.755 360.965C330.327 362.096 359.625 364.432 369.79 365.365C379.955 366.296 389.623 367.127 399.34 368.015C409.056 368.903 418.82 369.849 428.763 370.867C438.707 371.885 448.83 372.973 460.122 374.094C471.414 375.215 483.875 376.369 492.105 377.194C500.336 378.019 504.337 378.513 506.658 377.91C508.98 377.307 509.624 375.606 510.514 369.998C511.404 364.391 512.539 354.878 514.026 346.682C515.513 338.486 517.351 331.608 520.886 323.717C524.421 315.826 529.653 306.924 537.925 298.53C546.197 290.136 557.509 282.251 566.667 277.365C575.825 272.479 582.827 270.591 588.95 269.528C595.073 268.464 600.317 268.224 606.85 268.429C613.383 268.635 621.204 269.286 633.296 270.404C645.387 271.523 661.748 273.108 678.273 274.657C694.798 276.204 711.486 277.715 728.422 279.41C745.359 281.105 762.544 282.984 778.013 284.43C793.482 285.876 807.235 286.888 820.34 287.998C833.444 289.108 845.9 290.315 857.242 291.468C868.584 292.62 878.813 293.719 890.841 294.938C902.87 296.157 916.697 297.497 930.261 298.812C943.825 300.127 957.125 301.416 970.315 302.748C983.504 304.08 996.583 305.454 1008.87 306.752C1021.16 308.05 1032.65 309.271 1042.89 310.263C1053.13 311.255 1062.11 312.019 1071.09 312.782" stroke="#F9F9FB" stroke-width="0.999999"/>
<path d="M290.753 252.707C292.317 253.37 293.879 254.032 302.198 255.093C310.518 256.155 325.594 257.616 348.3 259.665C371.005 261.715 401.337 264.352 431.898 267.352C462.46 270.352 493.249 273.714 510.338 275.408C527.427 277.102 530.814 277.128 535.369 276.775C539.923 276.423 545.645 275.692 550.67 274.364C555.696 273.037 560.026 271.113 564.028 269.459C568.031 267.806 571.706 266.423 577.034 265.087C582.363 263.751 589.343 262.462 597.367 261.69C605.39 260.918 614.456 260.663 622.746 260.634C631.037 260.606 638.551 260.805 646.107 260.971C653.663 261.136 661.259 261.267 666.853 259.126C672.446 256.984 676.038 252.569 680.752 247.469C685.465 242.368 691.3 236.583 697.007 230.559C702.714 224.534 708.293 218.271 714.485 211.915C720.676 205.559 727.479 199.112 731.227 195.398C734.976 191.684 735.671 190.704 736.184 189.054C736.698 187.404 737.029 185.084 736.521 183.191C736.013 181.297 734.663 179.83 732.653 178.859C730.643 177.888 727.972 177.415 722.995 176.844C718.018 176.273 710.737 175.603 701.188 174.809C691.64 174.015 679.825 173.097 667.838 172.011C655.851 170.924 643.692 169.67 632.948 168.591C622.203 167.512 612.874 166.607 604.954 165.916C597.035 165.224 590.527 164.744 576.803 168.366C563.078 171.988 542.139 179.712 521.036 187.949C499.933 196.186 478.668 204.936 466.313 209.976C453.959 215.016 450.515 216.346 449.131 217.801C447.747 219.255 448.423 220.833 449.064 221.991C449.706 223.149 450.312 223.889 453.415 224.529C456.517 225.169 462.115 225.711 474.512 226.837C486.91 227.963 506.106 229.672 525.781 231.504C545.456 233.335 565.609 235.288 580.984 236.778C596.36 238.269 606.959 239.296 617.677 240.259C628.395 241.222 639.232 242.121 648.633 243.07C658.034 244.019 665.999 245.018 671.316 245.344C676.633 245.67 679.304 245.324 681.915 244.028C684.526 242.731 687.079 240.484 689.633 238.236" stroke="#F9F9FB" stroke-width="0.999999"/>
<path d="M840.676 191.921C841.482 195.155 843.093 201.619 844.874 208.528C846.655 215.437 848.606 222.79 850.766 231.285C852.926 239.781 855.295 249.42 856.761 255.175C858.228 260.931 858.792 262.803 861.202 263.784C863.611 264.765 867.864 264.856 877.158 265.704C886.452 266.551 900.787 268.154 918.689 269.783C936.592 271.411 958.06 273.064 972.949 274.453C987.838 275.843 996.145 276.969 1001.43 277.374C1006.72 277.78 1008.99 277.465 1010.19 276.567C1011.4 275.669 1011.54 274.186 1011.26 272.715C1010.98 271.245 1010.27 269.786 1006.21 266.024C1002.15 262.262 994.749 256.199 988.246 251.292C981.743 246.384 976.14 242.634 968.534 238.101C960.929 233.568 951.323 228.253 942.699 223.782C934.076 219.31 926.437 215.683 918.011 211.926C909.584 208.169 900.372 204.282 892.545 201.492C884.717 198.702 878.276 197.008 871.507 195.39C864.738 193.771 857.643 192.228 852.316 191.124C846.989 190.02 843.431 189.354 841.651 189.021C839.871 188.688 839.871 188.688 840.676 191.921Z" stroke="#F9F9FB" stroke-width="0.999999"/>
<mask id="mask0_1210_1414" style="mask-type:luminance" maskUnits="userSpaceOnUse" x="705" y="174" width="146" height="90">
<path d="M712.826 174.901L705.542 250.053L719.691 251.424C719.728 251.13 719.857 250.769 719.896 250.644C720.019 250.267 720.124 249.886 720.264 249.515C720.362 249.257 720.462 249 720.576 248.749C720.661 248.562 720.772 248.389 720.863 248.205C720.873 248.185 720.872 248.189 720.881 248.171C720.88 248.126 720.879 248.078 720.88 248.034C720.881 247.844 720.906 247.655 720.935 247.468C720.938 247.445 720.943 247.422 720.949 247.399C720.949 247.394 720.946 247.39 720.947 247.384C720.943 247.236 720.981 247.178 721.042 247.162C721.042 247.166 721.052 247.134 721.051 247.142C721.05 247.149 721.042 247.155 721.042 247.162C721.1 247.149 721.194 247.18 721.3 247.236C721.369 247.078 721.458 246.918 721.607 246.561C721.668 246.424 721.732 246.287 721.794 246.151C721.791 246.084 721.791 246.035 721.878 245.864C721.888 245.843 721.886 245.852 721.902 245.831C721.904 245.83 721.899 245.822 721.903 245.82C721.905 245.82 721.909 245.817 721.911 245.817C721.997 245.703 722.135 245.564 722.043 245.644C722.052 245.638 721.991 245.726 721.939 245.813C722.315 245.769 723.021 245.55 723.007 245.909C722.994 246.207 722.993 246.186 722.894 246.344C722.871 246.645 722.85 246.948 722.793 247.246C722.757 247.509 722.72 247.769 722.681 248.032C722.635 248.346 722.599 248.664 722.568 248.982C722.7 248.68 722.685 248.747 722.876 248.261C722.916 248.16 722.95 248.055 722.986 247.953C723.064 247.733 723.175 247.589 723.294 247.488C723.411 247.194 723.52 246.887 723.635 246.598C723.712 246.667 723.743 246.675 723.811 246.731C723.908 246.51 724.005 246.288 724.112 246.073C724.16 245.976 724.175 245.766 724.279 245.794C724.288 245.796 724.288 245.797 724.296 245.799C724.311 245.66 724.318 245.52 724.34 245.383C724.274 245.339 724.208 245.291 724.139 245.254C724.152 244.983 724.137 244.919 724.245 244.633C724.257 244.604 724.266 244.581 724.277 244.552C724.275 244.397 724.303 244.283 724.399 244.266C724.534 243.995 724.719 243.87 725.054 244.112C725.108 243.999 725.165 243.889 725.209 243.772C725.258 243.646 725.121 243.486 725.234 243.368C725.389 243.009 725.421 242.855 725.729 242.914C725.759 242.858 725.789 242.803 725.819 242.747C725.933 242.538 726.054 242.333 726.179 242.13C726.219 242.065 726.245 241.91 726.312 241.946C726.956 242.291 727.156 242.422 727.169 242.594C727.19 242.605 727.183 242.601 727.206 242.612C727.225 242.621 727.19 242.645 727.166 242.664C727.144 242.778 727.08 242.91 726.969 243.14C726.974 243.458 726.93 243.761 726.889 244.079C726.869 244.226 726.862 244.375 726.825 244.519C726.697 245.019 726.629 245.129 726.436 245.544C726.401 245.609 726.335 245.72 726.287 245.817C726.339 245.886 726.335 245.911 726.248 245.887C726.181 246.016 726.117 246.116 726.017 246.212C725.977 246.412 725.948 246.606 725.907 246.812C725.687 247.575 725.469 248.339 725.251 249.103C725.268 249.118 725.285 249.136 725.302 249.153C725.312 249.133 725.312 249.134 725.32 249.113C725.554 248.588 725.769 248.009 726.204 247.609C726.282 247.537 726.372 247.48 726.457 247.416C726.517 247.383 726.578 247.351 726.638 247.318C726.885 247.179 726.551 247.265 726.479 247.66C726.467 247.72 726.486 247.797 726.504 247.866C726.816 247.675 727.082 247.352 727.444 247.298C727.457 247.295 727.457 247.321 727.469 247.325C727.48 247.303 727.491 247.282 727.503 247.261C727.655 246.939 727.938 246.601 728.299 246.507C728.402 246.48 728.536 246.423 728.619 246.489C728.831 246.658 728.94 246.928 729.101 247.146C729.067 247.247 729.013 247.34 728.999 247.445C728.983 247.565 728.979 247.687 728.967 247.807C728.971 247.806 728.971 247.806 728.975 247.804C729.105 247.771 729.242 247.784 729.376 247.773C729.546 247.878 729.832 247.9 729.887 248.092C729.905 248.154 729.897 248.196 729.904 248.248C729.914 248.236 729.925 248.225 729.935 248.213C730.043 248.095 730.159 247.985 730.272 247.873C730.316 247.83 730.358 247.709 730.407 247.746C730.423 247.759 730.459 247.785 730.479 247.799C730.486 247.803 730.5 247.814 730.509 247.819C730.765 247.991 731.207 248.26 731.162 248.546C731.169 248.554 731.169 248.55 731.175 248.558C731.178 248.562 731.166 248.564 731.167 248.568C731.163 248.582 731.177 248.596 731.17 248.61C731.185 248.716 731.2 248.793 731.169 248.908C731.154 248.967 731.144 248.969 731.13 249.02C731.354 248.973 731.577 248.927 731.801 248.882C732.108 248.82 732.413 248.743 732.724 248.701C732.806 248.69 732.91 248.672 732.973 248.726C733.181 248.903 733.504 249.164 733.377 249.47C733.336 249.567 733.27 249.652 733.214 249.742C733.148 249.812 733.069 249.864 732.997 249.924C732.971 249.998 732.948 250.076 732.903 250.14C732.868 250.188 732.825 250.214 732.784 250.247C732.838 250.236 732.901 250.22 732.912 250.26C732.934 250.337 732.824 250.394 732.771 250.453C732.451 250.813 732.277 250.97 731.949 251.286C731.662 251.556 731.386 251.854 731.034 252.039C730.899 252.219 730.796 252.349 730.693 252.49L843.497 263.423L850.781 188.272L712.826 174.901ZM726.248 245.887C726.262 245.861 726.274 245.842 726.287 245.817C726.262 245.785 726.25 245.76 726.183 245.7C726.161 245.68 726.143 245.653 726.123 245.631C726.11 245.694 726.1 245.76 726.087 245.824C726.135 245.843 726.214 245.878 726.248 245.887ZM721.885 245.925C721.875 245.948 721.868 245.968 721.865 245.986C721.869 245.974 721.877 245.965 721.882 245.953C721.885 245.944 721.885 245.937 721.885 245.925ZM722.986 246.074C722.979 246.091 722.973 246.108 722.966 246.125C722.968 246.125 722.972 246.126 722.974 246.126C722.991 246.127 722.992 246.058 722.986 246.074ZM722.91 246.274C722.907 246.282 722.905 246.292 722.9 246.301C722.902 246.297 722.906 246.294 722.908 246.29C722.911 246.285 722.909 246.282 722.91 246.274ZM728.022 246.916C728.029 246.859 727.998 247.028 727.988 247.085C727.991 247.089 727.995 247.089 727.998 247.094C728.006 247.035 728.014 246.975 728.022 246.916ZM728.715 247.52C728.712 247.517 728.693 247.526 728.645 247.559C728.641 247.562 728.637 247.566 728.633 247.569C728.648 247.561 728.665 247.566 728.676 247.559C728.702 247.54 728.717 247.524 728.715 247.52ZM720.947 247.445C720.945 247.452 720.944 247.459 720.942 247.465C720.942 247.476 720.944 247.48 720.946 247.497C720.944 247.48 720.949 247.462 720.947 247.445ZM729.336 248.865C729.331 248.866 729.331 248.869 729.325 248.871C729.344 248.88 729.343 248.878 729.365 248.889C729.355 248.879 729.349 248.862 729.336 248.865ZM733.09 249.702C733.069 249.744 733.048 249.788 733.032 249.833C733.044 249.826 733.058 249.822 733.07 249.812C733.098 249.79 733.107 249.669 733.09 249.702ZM730.81 250.249C730.778 250.257 730.746 250.267 730.714 250.275C730.703 250.304 730.699 250.333 730.687 250.364C730.729 250.326 730.769 250.287 730.81 250.249ZM729.218 251.246C729.205 251.268 729.192 251.29 729.179 251.312C729.002 251.637 728.835 251.967 728.661 252.294L728.855 252.312C728.976 251.956 729.099 251.595 729.218 251.246ZM727.426 251.265C727.37 251.263 727.314 251.265 727.258 251.263C727.25 251.268 727.244 251.275 727.236 251.279C727.135 251.319 727.015 251.374 726.911 251.377C726.851 251.563 726.762 251.801 726.66 252.1L727.238 252.156C727.3 251.859 727.371 251.563 727.426 251.265ZM723.645 251.029C723.482 251.291 723.349 251.495 723.214 251.72C723.209 251.736 723.2 251.751 723.196 251.764L723.532 251.796C723.559 251.587 723.614 251.267 723.645 251.029ZM725.387 251.741C725.348 251.83 725.323 251.887 725.288 251.967L725.454 251.983C725.429 251.904 725.405 251.825 725.387 251.741ZM720.938 251.328C720.932 251.351 720.925 251.374 720.914 251.396C720.909 251.404 720.886 251.4 720.885 251.41C720.877 251.453 720.88 251.496 720.879 251.54L720.945 251.546C720.943 251.473 720.94 251.4 720.938 251.328ZM719.784 251.367C719.783 251.368 719.782 251.372 719.78 251.374C719.776 251.394 719.767 251.444 719.77 251.433C719.774 251.411 719.78 251.389 719.784 251.367Z" fill="white"/>
</mask>
<g mask="url(#mask0_1210_1414)">
<path d="M823.231 187.236C818.656 186.632 809.503 185.424 801.285 184.467C793.067 183.51 785.784 182.804 779.932 182.718C774.08 182.632 769.659 183.166 765.746 183.963C761.833 184.76 758.427 185.82 752.262 191.157C746.098 196.494 737.175 206.107 729.746 214.048C722.317 221.988 716.382 228.256 712.663 232.547C708.944 236.838 707.442 239.151 707.285 241.329C707.128 243.506 708.315 245.546 710.261 246.91C712.207 248.274 714.91 248.963 720.331 249.649C725.752 250.334 733.89 251.016 747.386 252.485C760.882 253.953 779.735 256.208 794.397 257.736C809.059 259.264 819.529 260.065 827.509 260.731C835.489 261.398 840.978 261.93 842.688 258.568C844.399 255.207 842.332 247.95 840.168 240.041C838.005 232.133 835.744 223.575 833.739 215.682C831.734 207.789 829.983 200.563 829.037 196.034C828.091 191.505 827.949 189.673 827.877 188.756C827.806 187.84 827.806 187.84 823.231 187.236Z" stroke="#F9F9FB" stroke-width="0.999999"/>
</g>
<path d="M717.571 259.354C717.913 257.385 718.596 253.444 719.629 249.007C720.661 244.571 722.043 239.639 724.267 235.356C726.49 231.072 729.555 227.438 732.906 224.738C736.257 222.038 739.893 220.274 742.674 219.182C745.455 218.091 747.379 217.673 750.427 217.704C753.476 217.735 757.648 218.215 761.862 218.661C766.075 219.107 770.33 219.52 773.122 219.866C775.913 220.212 777.242 220.492 778.288 220.972C779.334 221.452 780.097 222.131 780.6 223.541C781.103 224.951 781.348 227.091 781.217 229.989C781.087 232.887 780.582 236.543 780.22 239.494C779.859 242.446 779.641 244.693 778.96 246.668C778.279 248.642 777.134 250.346 775.806 251.616C774.478 252.885 772.965 253.721 766.414 253.691C759.863 253.661 748.273 252.765 741.432 252.215C734.592 251.666 732.502 251.463 731.343 252.524C730.185 253.584 729.96 255.906 729.395 258.233C728.831 260.559 727.927 262.891 726.311 264.019C724.696 265.147 722.368 265.073 720.736 264.424C719.103 263.775 718.167 262.551 717.699 261.937C717.23 261.324 717.23 261.324 717.571 259.354Z" stroke="#F9F9FB" stroke-width="0.999999"/>
<path d="M428.818 300.66C430.486 299.385 433.085 297.444 436.102 295.468C439.119 293.492 442.554 291.481 446.134 289.522C449.714 287.563 453.44 285.656 457.171 284.09C460.901 282.524 464.636 281.298 467.918 280.482C471.199 279.666 474.026 279.26 477.937 279.336C481.847 279.413 486.841 279.973 491.726 280.484C496.611 280.995 501.388 281.458 506.504 281.916C511.621 282.374 517.077 282.827 521.022 283.323C524.967 283.819 527.401 284.358 528.69 285.428C529.979 286.499 530.126 288.101 529.779 289.73C529.432 291.36 528.594 293.017 526.763 294.805C524.933 296.593 522.11 298.512 518.974 300.552C515.838 302.591 512.389 304.752 509.572 306.218C506.756 307.684 504.572 308.455 502.41 309.379C500.248 310.304 498.11 311.382 490.656 311.34C483.201 311.298 470.431 310.136 460.653 309.189C450.875 308.241 444.091 307.508 438.948 306.934C433.805 306.36 430.304 305.944 428.366 305.342C426.427 304.739 426.052 303.947 426.233 303.245C426.413 302.543 427.15 301.934 428.818 300.66Z" stroke="#F9F9FB" stroke-width="0.999999"/>
<path d="M293.256 288.965C292.435 283.442 289.09 263.455 288.868 261.467C288.646 259.479 288.647 259.475 288.706 259.255C288.765 259.034 288.883 258.592 289.506 258.387C290.13 258.182 291.257 258.216 310.144 260.009C329.032 261.802 365.679 265.353 387.59 267.439C409.5 269.525 416.673 270.144 421.04 270.946C425.408 271.748 426.97 272.731 427.965 273.735C428.959 274.74 429.388 275.764 429.267 276.999C429.147 278.234 428.479 279.682 427.115 281.704C425.751 283.726 423.692 286.324 421.073 289.246C418.454 292.167 415.277 295.413 411.973 298.797C408.669 302.181 405.238 305.705 402.793 308C400.349 310.296 398.889 311.364 396.962 311.82C395.035 312.276 392.639 312.12 384.429 311.324C376.219 310.528 362.194 309.093 350.662 307.976C339.13 306.858 330.091 306.063 322.109 305.249C314.126 304.438 309.28 303.808 305.256 302.965" stroke="#F9F9FB" stroke-width="0.999999"/>
<path d="M610.003 426.205C630.809 428.221 649.605 409.936 651.987 385.363C654.368 360.79 639.433 339.235 618.628 337.219C597.823 335.203 579.026 353.488 576.645 378.061C574.263 402.634 589.198 424.189 610.003 426.205Z" stroke="#F9F9FB" stroke-width="1.00157"/>
<path d="M973.725 462.254C994.53 464.271 1013.33 445.985 1015.71 421.412C1018.09 396.84 1003.15 375.285 982.35 373.268C961.545 371.252 942.748 389.537 940.366 414.11C937.985 438.683 952.92 460.238 973.725 462.254Z" stroke="#F9F9FB" stroke-width="1.00157"/>
<path d="M173.449 196.822C172.596 195.66 171.741 194.496 170.632 193.757C169.523 193.019 168.159 192.707 165.876 192.77C163.594 192.833 160.393 193.272 157.157 193.827C153.921 194.381 150.65 195.051 148.547 195.848C146.445 196.645 145.511 197.569 144.153 198.566C142.795 199.563 141.013 200.632 139.351 200.809C137.688 200.985 136.146 200.267 135.077 198.812C134.008 197.358 133.414 195.166 132.9 193.125C132.387 191.084 131.954 189.193 131.149 187.365C130.345 185.538 129.169 183.774 129.117 182.199C129.066 180.624 130.139 179.239 132.548 177.68C134.957 176.12 138.7 174.387 142.453 172.707C146.206 171.026 149.968 169.399 152.336 168.557C154.704 167.715 155.677 167.657 157.36 166.331C159.043 165.006 161.438 162.412 163.815 159.711C166.192 157.011 168.551 154.205 171.22 151.618C173.889 149.032 176.869 146.665 180.835 144.949C184.8 143.232 189.75 142.166 194.069 142.19C198.387 142.215 202.072 143.331 205.408 145.271C208.743 147.211 211.729 149.975 213.892 153.044C216.056 156.113 217.398 159.486 217.879 162.297C218.361 165.107 217.981 167.356 216.929 169.501C215.877 171.646 214.152 173.689 211.347 175.48C208.542 177.27 204.656 178.81 200.916 179.287C197.175 179.764 193.58 179.179 190.16 178.019C186.739 176.858 183.493 175.121 180.917 172.833C178.34 170.545 176.434 167.705 175.491 164.755C174.548 161.804 174.57 158.743 175.072 156.255C175.574 153.766 176.556 151.851 177.09 150.504C177.623 149.158 177.708 148.379 178.909 147.302C180.109 146.226 182.424 144.853 184.739 143.481" stroke="#F9F9FB" stroke-width="0.999999"/>
<path d="M214.348 154.438C216.014 154.59 217.678 154.741 219.456 154.6C221.233 154.459 223.125 154.026 225.098 154.07C227.072 154.115 229.127 154.636 230.982 155.902C232.836 157.168 234.491 159.177 235.544 161.181C236.596 163.184 237.048 165.181 236.687 167.535C236.325 169.89 235.152 172.602 233.798 174.581C232.445 176.559 230.911 177.805 227.686 178.74C224.461 179.674 219.545 180.298 216.238 180.756C212.93 181.213 211.233 181.504 210.147 182.182C209.061 182.859 208.588 183.923 207.088 184.726C205.588 185.528 203.06 186.071 199.154 187.177C195.248 188.283 189.965 189.952 185.451 191.653C180.937 193.355 177.193 195.088 173.449 196.822" stroke="#F9F9FB" stroke-width="0.999999"/>
<path d="M128.693 184.182C124.895 185.597 121.097 187.011 116.964 188.702C112.831 190.393 108.362 192.36 104.672 194.084C100.981 195.808 98.0677 197.29 95.9398 198.255C93.8119 199.22 92.4691 199.669 91.9092 201.185C91.3493 202.701 91.5732 205.283 92.4134 206.995C93.2536 208.707 94.7084 209.55 96.742 209.31C98.7756 209.07 101.389 207.749 104.893 205.893C108.397 204.037 112.793 201.646 117.548 199.439C122.302 197.232 127.415 195.21 132.529 193.187L128.693 184.182Z" stroke="#F9F9FB" stroke-width="0.999999"/>
<path d="M236.507 162.98C236.76 164.139 237.266 166.454 237.097 168.338C236.929 170.223 236.086 171.678 237.149 171.823C238.212 171.968 241.179 170.805 244.628 170.214C248.076 169.623 252.004 169.605 255.013 169.636C258.021 169.666 260.11 169.745 261.781 169.623C263.453 169.5 264.708 169.176 265.241 167.829C265.774 166.483 265.587 164.113 265.395 162.672C265.203 161.231 265.005 160.719 262.881 160.427C260.757 160.135 256.704 160.065 252.759 160.304C248.814 160.543 244.976 161.092 242.243 161.396C239.511 161.701 237.883 161.761 237.069 161.792C236.254 161.822 236.254 161.822 236.507 162.98Z" stroke="#F9F9FB" stroke-width="0.999999"/>
<path d="M135.403 176.069C135.172 174.72 134.94 173.37 134.529 172.321C134.118 171.272 133.527 170.524 131.665 169.569C129.803 168.614 126.669 167.452 122.484 166.239C118.299 165.026 113.063 163.761 107.158 162.649C101.253 161.538 94.68 160.579 90.2979 160.018C85.9157 159.456 83.7253 159.291 81.5332 159.125" stroke="#F9F9FB" stroke-width="0.999999"/>
<path d="M139.41 173.761C138.588 171.664 137.765 169.566 136.827 168.144C135.889 166.722 134.834 165.976 132.139 164.894C129.444 163.811 125.108 162.392 120.812 161.43C116.515 160.467 112.259 159.961 107.82 159.293C103.381 158.625 98.76 157.796 95.7165 157.159C92.6729 156.523 91.207 156.079 89.7024 155.411C88.1977 154.742 86.6546 153.848 85.5444 153.228C84.4342 152.607 83.757 152.26 83.0781 151.912" stroke="#F9F9FB" stroke-width="0.999999"/>
<path d="M91.6757 156.122C91.5775 153.746 91.4791 151.37 91.1097 149.212C90.7402 147.055 90.0991 145.116 88.6303 143.301C87.1615 141.485 84.8641 139.795 82.5441 138.648C80.2241 137.501 77.8815 136.898 75.5233 137.109C73.1651 137.319 70.7923 138.344 68.5832 139.649C66.374 140.954 64.329 142.539 62.9739 144.548C61.6187 146.556 60.954 148.986 60.6451 151.24C60.3363 153.493 60.3832 155.57 60.8934 157.644C61.4036 159.719 62.3764 161.791 63.9488 163.529C65.5212 165.267 67.6922 166.671 69.723 167.48C71.7538 168.29 73.6442 168.507 75.9268 168.308C78.2093 168.11 80.8842 167.497 82.8452 166.775C84.8062 166.053 86.0538 165.222 87.2183 164.067C88.3828 162.912 89.4647 161.432 90.5467 159.953" stroke="#F9F9FB" stroke-width="0.999999"/>
<path d="M221.268 153.946C221.206 151.332 221.144 148.718 221.71 146.613C222.276 144.508 223.47 142.914 224.963 141.036C226.457 139.159 228.249 136.999 230.023 134.958C231.797 132.917 233.552 130.995 235.202 129.129C236.851 127.264 238.395 125.456 240.033 123.746C241.671 122.037 243.403 120.428 245.134 118.819" stroke="#F9F9FB" stroke-width="0.999999"/>
<path d="M224.772 154.085C224.595 152.575 224.418 151.063 224.996 149.496C225.574 147.929 226.907 146.308 228.414 144.426C229.92 142.544 231.601 140.4 233.601 137.737C235.602 135.074 237.924 131.892 239.868 129.456C241.813 127.021 243.38 125.334 244.537 124.194C245.693 123.054 246.438 122.462 247.169 122.105C247.9 121.748 248.616 121.625 249.331 121.503" stroke="#F9F9FB" stroke-width="0.999999"/>
<path d="M240.247 122.977C239.577 121.619 238.908 120.26 238.378 118.603C237.848 116.947 237.459 114.994 237.799 112.833C238.139 110.673 239.207 108.306 240.624 106.534C242.041 104.762 243.805 103.587 246.236 102.952C248.667 102.317 251.763 102.224 254.218 103.005C256.672 103.786 258.484 105.441 260.034 107.796C261.584 110.151 262.872 113.206 263.419 115.923C263.966 118.641 263.774 121.021 262.956 123.099C262.138 125.177 260.695 126.953 258.843 128.253C256.991 129.552 254.73 130.377 252.585 130.444C250.44 130.512 248.411 129.823 246.743 129.017C245.076 128.211 243.771 127.288 242.465 126.364" stroke="#F9F9FB" stroke-width="0.999999"/>
<path d="M173.449 196.822C170.135 199.957 166.821 203.093 164.287 206.085C161.754 209.077 160.003 211.924 159.501 215.756C158.999 219.587 159.746 224.4 160.739 228.167C161.733 231.935 162.971 234.657 164.617 237.501C166.263 240.346 168.316 243.315 170.475 247.577C172.633 251.84 174.898 257.396 176.993 262.635C179.087 267.874 181.011 272.794 182.185 277.843C183.359 282.892 183.782 288.069 183.739 293.674C183.695 299.279 183.184 305.311 182.813 311.706C182.441 318.101 182.209 324.858 180.689 334.692C179.169 344.526 176.362 357.437 173.807 365.286C171.252 373.135 168.95 375.923 167.319 377.669C165.687 379.415 164.727 380.12 161.376 380.618C158.026 381.115 152.283 381.404 143.638 381.65C134.993 381.895 123.444 382.098 116.88 381.872C110.316 381.646 108.737 380.99 107.893 381.482C107.05 381.974 106.945 383.613 111.048 384.57C115.151 385.527 123.461 385.802 130.137 385.777C136.812 385.753 141.853 385.43 146.832 385.194C151.812 384.959 156.728 384.811 160.537 384.506C164.346 384.201 167.047 383.738 169.299 382.464C171.551 381.19 173.356 379.105 175.006 375.889C176.655 372.673 178.15 368.325 179.579 363.371C181.008 358.416 182.372 352.855 183.625 344.843C184.878 336.83 186.019 326.366 186.799 317.393C187.578 308.419 187.995 300.936 188.081 295.13C188.168 289.325 187.924 285.198 187.102 280.398C186.279 275.597 184.878 270.124 183.122 265.059C181.367 259.994 179.256 255.337 177.335 251.111C175.414 246.885 173.683 243.09 171.734 239.602C169.785 236.114 167.619 232.934 166.12 229.6C164.622 226.267 163.793 222.78 163.617 219.722C163.44 216.663 163.916 214.034 165.106 211.514C166.296 208.993 168.2 206.582 173.022 203.401C177.844 200.22 185.585 196.269 193.324 192.318" stroke="#F9F9FB" stroke-width="0.999999"/>
<path d="M190.965 189.364C192.52 191.222 194.073 193.079 196.121 195.566C198.169 198.053 200.71 201.169 207.019 208.886C213.329 216.604 223.405 228.922 229.365 235.524C235.326 242.125 237.17 243.01 239.063 243.86C240.956 244.709 242.898 245.523 244.695 245.815C246.492 246.107 248.146 245.879 249.843 245.588C251.541 245.297 253.282 244.944 254.371 244.293C255.46 243.643 255.898 242.694 256.203 241.442C256.507 240.189 256.677 238.631 256.371 236.527C256.065 234.423 255.284 231.773 250.222 223.741C245.16 215.71 235.818 202.297 230.624 195.244C225.43 188.19 224.383 187.496 222.977 186.782C221.571 186.067 219.807 185.332 218.058 185.003C216.309 184.675 214.575 184.753 212.69 184.799C210.804 184.844 208.765 184.857 206.727 184.869C209.835 184.728 212.944 184.587 216.625 185.299C220.306 186.011 224.56 187.575 228.819 189.165C233.077 190.756 237.341 192.373 240.906 194.383C244.472 196.393 247.341 198.795 251.001 203.108C254.661 207.422 259.113 213.647 263.646 220.186C268.18 226.725 272.794 233.577 275.936 238.853C279.079 244.129 280.75 247.828 282.251 251.174C283.753 254.52 285.085 257.513 286.3 261.099C287.515 264.685 288.613 268.864 289.077 271.732C289.539 274.601 289.371 276.158 289.256 277.079C289.14 277.999 289.079 278.283 286.798 277.391C284.517 276.499 280.012 274.432 275.122 272.976C270.231 271.521 264.954 270.678 259.196 271.173C253.438 271.668 247.199 273.501 240.181 275.601C233.163 277.701 225.366 280.068 219.318 284.939C213.271 289.811 208.975 297.186 206.946 305.178C204.918 313.17 205.157 321.776 205.303 329.394C205.45 337.012 205.505 343.643 207.486 349.789C209.466 355.935 213.37 361.597 216.666 365.511C219.963 369.424 222.65 371.588 225.784 372.749C228.917 373.91 232.497 374.069 235.223 373.756C237.949 373.443 239.822 372.659 241.563 372.902C243.304 373.145 244.911 374.414 246.248 376.81C247.584 379.206 248.651 382.729 246.022 384.955C243.392 387.181 237.064 388.11 227.123 389.582C217.182 391.053 203.627 393.067 190.809 394.877C177.992 396.687 165.911 398.294 153.719 400.151C141.527 402.008 129.224 404.116 122.318 404.374C115.412 404.631 113.904 403.037 111.673 399.481C109.441 395.926 106.489 390.41 104.821 386.989C103.154 383.569 102.773 382.245 103.521 381.653C104.27 381.061 106.148 381.202 108.024 381.344" stroke="#F9F9FB" stroke-width="0.999999"/>
<path d="M227.143 360.739C226.469 358.399 225.121 353.716 224.018 348.555C222.915 343.394 222.058 337.754 221.093 331.805C220.128 325.855 219.056 319.597 219.339 313.598C219.621 307.598 221.259 301.858 223.556 297.097C225.853 292.336 228.808 288.554 232.512 285.626C236.215 282.699 240.665 280.626 244.853 279.253C249.041 277.881 252.967 277.208 257.32 277.118C261.673 277.027 266.453 277.519 271.715 278.91C276.977 280.302 282.721 282.593 287.387 285.288C292.053 287.983 295.641 291.08 299.216 295.054C302.791 299.027 306.352 303.877 307.743 306.258C309.134 308.64 308.355 308.555 300.623 310.917C292.892 313.278 278.208 318.087 266.216 321.397C254.224 324.707 244.925 326.519 239.001 329.554C233.077 332.589 230.53 336.847 229.437 341.621C228.343 346.395 228.703 351.683 229.038 355.229C229.373 358.775 229.681 360.578 229.474 361.595C229.267 362.613 228.542 362.846 228.18 362.963C227.817 363.08 227.817 363.08 227.143 360.739Z" stroke="#F9F9FB" stroke-width="0.999999"/>
<path d="M287.871 314.717C293.376 319.806 298.879 324.894 303.958 331.461C309.036 338.029 313.691 346.075 316.862 352.793C320.033 359.51 321.721 364.899 323.065 370.51C324.408 376.121 325.408 381.955 325.824 387.889C326.24 393.823 326.072 399.857 325.313 406.265C324.555 412.673 323.205 419.456 320.546 424.333C317.887 429.21 313.919 432.183 309.647 434.334C305.374 436.486 300.797 437.816 296.213 437.51C291.628 437.204 287.036 435.261 282.723 432.397C278.41 429.533 274.376 425.748 270.636 420.493C266.896 415.237 263.45 408.512 260.698 402.651C257.947 396.789 255.889 391.792 254.806 388.975C253.722 386.157 253.613 385.521 255.051 386.258C256.488 386.994 259.47 389.103 261.484 392.253C263.497 395.402 264.542 399.59 267.341 404.133C270.14 408.676 274.693 413.574 277.936 416.567C281.179 419.559 283.113 420.648 284.99 421.09C286.868 421.532 288.69 421.329 290.893 419.532C293.096 417.735 295.682 414.344 296.874 409.827C298.066 405.31 297.864 399.667 297.146 393.567C296.429 387.466 295.196 380.908 294.234 375.613C293.272 370.319 292.582 366.288 290.658 361.431C288.734 356.575 285.576 350.892 282.249 346.767C278.921 342.642 275.424 340.075 272.408 338.407C269.392 336.74 266.858 335.973 264.322 335.206" stroke="#F9F9FB" stroke-width="0.999999"/>
<path d="M258.904 322.705C260.711 326.873 262.517 331.041 264.687 335.418C266.857 339.796 269.39 344.385 270.838 347.74C272.287 351.095 272.65 353.216 270.665 354.375C268.68 355.533 264.345 355.73 261.988 356.953C259.63 358.176 259.251 360.425 259.316 363.034C259.381 365.644 259.89 368.614 259.19 372.5C258.491 376.387 256.584 381.19 257.042 384.497C257.5 387.804 260.322 389.613 262.633 390.035C264.944 390.457 266.744 389.494 267.384 386.219C268.024 382.943 267.503 377.355 267.617 373.24C267.731 369.126 268.48 366.486 269.432 363.757C270.384 361.028 271.54 358.21 273.583 358.024C275.627 357.838 278.558 360.284 280.961 363.475C283.364 366.667 285.24 370.604 286.715 376.029C288.19 381.454 289.266 388.366 289.227 393.559C289.188 398.752 288.036 402.225 286.151 403.967C284.266 405.709 281.647 405.721 279.163 404.291C276.679 402.861 274.33 399.988 272.363 396.79C270.395 393.592 268.808 390.07 267.221 386.546" stroke="#F9F9FB" stroke-width="0.999999"/>
<path d="M243.953 327.231C247.018 331.73 250.082 336.228 253.413 341.008C256.743 345.787 260.341 350.848 263.937 355.908" stroke="#F9F9FB" stroke-width="0.999999"/>
<path d="M259.523 371.597C257.188 369.641 254.852 367.685 254.04 365.28C253.227 362.876 253.94 360.024 252.697 356.907C251.453 353.79 248.253 350.408 244.53 346.842C240.806 343.276 236.56 339.527 234.353 338.759C232.145 337.99 231.978 340.202 232.856 342.455C233.734 344.707 235.656 346.998 237.988 350.092C240.32 353.187 243.062 357.084 246.351 362.292C249.639 367.499 253.473 374.017 257.307 380.533" stroke="#F9F9FB" stroke-width="0.999999"/>
<path d="M248.75 366.699C247.061 368.954 245.372 371.209 245.315 374.058C245.257 376.908 246.83 380.351 249.252 382.733C251.675 385.116 254.945 386.439 258.215 387.761" stroke="#F9F9FB" stroke-width="0.999999"/>
<path d="M228.281 363.082C231.665 362.693 235.048 362.305 237.502 361.229C239.956 360.153 241.483 358.39 243.011 356.627" stroke="#F9F9FB" stroke-width="0.999999"/>
<path d="M224.434 295.527C228.215 294.005 231.995 292.484 235.596 292.468C239.198 292.452 242.62 293.94 246.128 296.888C249.636 299.836 253.23 304.243 256.434 308.62C259.638 312.997 262.451 317.345 265.263 321.691" stroke="#F9F9FB" stroke-width="0.999999"/>
<path d="M239.562 281.125C243.763 283.141 247.963 285.158 251.945 287.59C255.927 290.023 259.691 292.872 263.302 295.147C266.914 297.421 270.372 299.122 272.992 299.436C275.612 299.751 277.395 298.682 277.784 296.814C278.174 294.947 277.171 292.28 275.159 288.965C273.148 285.65 270.127 281.687 267.106 277.723" stroke="#F9F9FB" stroke-width="0.999999"/>
<path d="M169.019 293.841C165.02 294.834 157.02 296.823 147.772 296.477C138.523 296.132 128.026 293.453 120.434 291.511C112.842 289.569 108.157 288.364 103.868 286.32C99.5795 284.275 95.6876 281.391 90.4148 280.363C85.1421 279.336 78.4891 280.167 71.8683 279.835C65.2475 279.502 58.6591 278.006 54.9914 275.083C51.3238 272.161 50.5784 267.81 51.0525 264.717C51.5266 261.624 53.22 259.79 55.7671 258.427C58.3141 257.064 61.7136 256.173 64.9525 255.696C68.1914 255.218 71.2692 255.154 72.863 256.348C74.4569 257.543 74.568 259.994 75.2281 259.34C75.8883 258.686 77.0976 254.928 80.7167 252.609C84.3359 250.29 90.363 249.412 96.4526 248.446C102.542 247.479 108.694 246.425 113.934 245.914C119.175 245.402 123.505 245.432 126.949 246.155C130.394 246.878 132.952 248.292 131.822 250.261C130.692 252.23 125.873 254.754 120.926 256.528C115.979 258.302 110.904 259.326 106.377 259.948C101.85 260.569 97.8721 260.787 100.384 260.125C102.896 259.463 111.899 257.921 118.76 256.05C125.621 254.18 130.341 251.981 134.626 250.398C138.911 248.814 142.76 247.846 146.449 247.291C150.138 246.737 153.666 246.595 158.204 248.289C162.741 249.983 168.287 253.511 171.948 257.13C175.608 260.75 177.383 264.46 178.918 268.463C180.453 272.465 181.749 276.76 182.575 280.401C183.402 284.043 183.759 287.031 182.089 288.996C180.418 290.961 176.719 291.904 174.868 292.375C173.018 292.847 173.018 292.847 169.019 293.841Z" stroke="#F9F9FB" stroke-width="0.999999"/>
<path d="M155.969 258.245C157.582 260.441 159.193 262.635 159.824 266.773C160.456 270.911 160.108 276.993 159.427 281.587C158.747 286.181 157.735 289.289 154.363 293.495C150.991 297.701 145.26 303.006 141.424 307.215C137.589 311.424 135.651 314.535 134.63 318.494C133.61 322.453 133.506 327.257 134.252 331.608C134.997 335.958 136.592 339.854 139.086 343.596C141.581 347.338 144.976 350.925 149.292 353.582C153.609 356.239 158.847 357.967 163.286 359.191C167.725 360.415 171.365 361.136 175.003 361.857" stroke="#F9F9FB" stroke-width="0.999999"/>
<path d="M128.887 346.268C133.989 345.394 139.091 344.52 144.042 343.672C148.993 342.823 153.795 342.001 159.88 340.536C165.965 339.07 173.335 336.963 180.704 334.856" stroke="#F9F9FB" stroke-width="0.999999"/>
<path d="M175.729 357.352C172.52 357.091 169.309 356.83 166.01 355.601C162.71 354.372 159.322 352.173 157.975 350.512C156.628 348.85 157.323 347.727 159.609 346.757C161.896 345.786 165.771 344.967 168.871 344.359C171.972 343.75 174.297 343.352 175.876 343.101C177.455 342.85 178.286 342.746 179.117 342.642" stroke="#F9F9FB" stroke-width="0.999999"/>
<path d="M182.813 288.281C181.682 291.445 180.552 294.609 180.22 298.004C179.888 301.399 180.355 305.025 180.916 307.208C181.476 309.392 182.13 310.133 182.782 310.873" stroke="#F9F9FB" stroke-width="0.999999"/>
<path d="M37.8005 338.365C38.0344 336.125 38.5022 331.644 39.6505 326.853C40.7989 322.062 42.6279 316.962 44.5522 312.193C46.4765 307.424 48.4961 302.986 51.6123 298.862C54.7285 294.737 58.9406 290.928 62.9194 288.007C66.8981 285.086 70.6428 283.055 74.2409 281.744C77.8391 280.432 81.2899 279.841 85.0325 280.05C88.775 280.258 92.8087 281.265 96.4501 282.688C100.092 284.11 103.341 285.947 106.055 288.493C108.769 291.039 110.948 294.295 112.35 297.297C113.752 300.3 114.378 303.049 114.709 307.238C115.041 311.428 115.079 317.057 113.802 325.383C112.526 333.708 109.935 344.729 107.36 352.234C104.785 359.74 102.225 363.73 99.3943 365.682C96.5634 367.634 93.4598 367.548 89.366 367.091C85.2722 366.635 80.1883 365.807 74.3347 364.996C68.4812 364.184 61.8584 363.389 56.6618 362.58C51.4653 361.772 47.6953 360.951 44.5124 359.953C41.3296 358.954 38.7341 357.777 37.1026 355.471C35.4711 353.164 34.805 349.727 35.0431 347.06C35.2812 344.394 36.4238 342.499 36.9952 341.552C37.5666 340.605 37.5666 340.605 37.8005 338.365Z" stroke="#F9F9FB" stroke-width="0.999999"/>
<path d="M37.8008 338.365C39.4667 339.818 41.1312 341.27 47.1849 342.722C53.2385 344.175 63.6807 345.628 70.34 346.185C76.9994 346.743 79.8758 346.404 81.5765 346.19C83.2773 345.976 83.8024 345.886 84.3263 345.796" stroke="#F9F9FB" stroke-width="0.999999"/>
<path d="M49.6964 301.386C52.1974 300.367 54.6975 299.348 57.311 298.682C59.9246 298.017 62.6509 297.704 65.5564 298.211C68.4619 298.717 71.546 300.041 73.8551 301.576C76.1641 303.111 77.6986 304.856 79.8028 308.124C81.907 311.392 84.5813 316.184 86.0668 321.025C87.5522 325.866 87.8495 330.756 87.703 335.761C87.5566 340.766 86.9665 345.885 85.7775 349.988C84.5884 354.09 82.8005 357.176 80.7653 359.493C78.7302 361.81 76.4473 363.359 74.1639 364.909" stroke="#F9F9FB" stroke-width="0.999999"/>
<path d="M109.507 344.03C107.172 344.816 104.835 345.602 102.441 346.051C100.047 346.501 97.5952 346.612 95.5805 346.571C93.5658 346.53 91.9883 346.337 90.4092 346.144" stroke="#F9F9FB" stroke-width="0.999999"/>
<path d="M83.0117 356.039C85.3201 356.32 87.6269 356.6 90.4745 356.488C93.3222 356.376 96.7109 355.873 100.098 355.37" stroke="#F9F9FB" stroke-width="0.999999"/>
<path d="M79.0908 360.88C80.7122 361.433 82.332 361.985 84.5425 362.098C86.753 362.212 89.5544 361.886 92.3545 361.561" stroke="#F9F9FB" stroke-width="0.999999"/>
<path d="M109.507 344.029C113.238 344.163 116.968 344.296 119.439 344.297C121.91 344.298 123.124 344.167 122.47 346.441C121.816 348.715 119.297 353.393 117.526 357.48C115.755 361.567 114.732 365.062 114.071 368.186C113.409 371.311 113.109 374.065 112.808 376.817" stroke="#F9F9FB" stroke-width="0.999999"/>
<path d="M92.1557 367.154C87.4019 370.053 82.6476 372.952 79.1167 374.879C75.5859 376.806 73.2786 377.761 71.1472 378.165C69.0159 378.57 67.06 378.422 65.3664 379.359C63.6728 380.295 62.2429 382.316 61.2426 385.267C60.2423 388.219 59.6717 392.099 60.0164 396.364C60.3613 400.629 61.6209 405.277 63.3424 408.109C65.0638 410.941 67.2455 411.957 69.2442 412.579C71.2428 413.201 73.0582 413.431 74.9152 413.228C76.7722 413.026 78.6713 412.391 80.002 410.697C81.3327 409.002 82.096 406.246 82.1834 403.375C82.2708 400.504 81.6817 397.517 81.0924 394.528" stroke="#F9F9FB" stroke-width="0.999999"/>
<path d="M80.5725 387.436C79.4096 384.703 78.2461 381.969 77.0068 380.366C75.7676 378.764 74.4516 378.295 72.5931 378.265C70.7346 378.236 68.334 378.647 66.5351 379.418C64.7362 380.19 63.5401 381.321 62.6256 382.52C61.711 383.719 61.0786 384.986 62.0074 385.444C62.9361 385.903 65.4246 385.553 67.3683 386.534C69.312 387.514 70.7113 389.822 71.6034 392.101C72.4955 394.38 72.881 396.63 72.6469 398.87C72.4128 401.11 71.5595 403.341 70.5397 404.597C69.52 405.852 68.3325 406.132 66.7522 405.62C65.1719 405.108 63.1985 403.802 61.2236 402.494" stroke="#F9F9FB" stroke-width="0.999999"/>
<path d="M126.951 405.509C124.99 406.463 124.021 408.018 121.599 408.974C119.176 409.93 115.299 410.285 112.209 413.44C109.119 416.594 106.819 422.547 104.416 426.549C102.013 430.55 99.507 432.601 96.8958 433.358C94.2846 434.114 91.5669 433.576 88.3829 430.995C85.1989 428.414 81.5494 423.79 79.3633 420.497C77.1772 417.204 76.4551 415.243 74.6232 414.012C72.7913 412.782 69.8485 412.282 69.1159 413.643C68.3833 415.005 69.8618 418.226 71.3971 421.553C72.9325 424.88 74.5245 428.313 76.7674 431.712C79.0103 435.111 81.9034 438.475 84.8612 440.864C87.8191 443.252 90.841 444.664 94.0367 445.738C97.2324 446.812 100.602 447.547 103.805 447.538C107.008 447.529 110.045 446.777 112.931 445.82C115.817 444.862 118.552 443.698 121.144 441.478C123.737 439.259 126.187 435.982 128.191 432.358C130.196 428.733 131.755 424.76 132.784 419.952C133.814 415.143 134.314 409.498 134.814 403.853C131.862 404.204 128.912 404.555 126.951 405.509Z" stroke="#F9F9FB" stroke-width="0.999999"/>
<path d="M82.9915 407.636C84.3003 406.485 86.9177 404.184 88.8164 403.319C90.7152 402.453 91.8939 403.024 93.3745 402.653C94.855 402.283 96.6385 400.974 99.2474 399.523C101.856 398.073 105.29 396.481 107.568 396.477C109.845 396.474 110.966 398.058 111.453 399.325C111.94 400.592 111.794 401.544 110.131 403.334C108.469 405.123 105.29 407.753 102.534 409.692C99.7774 411.631 97.4431 412.88 95.149 413.235C92.8547 413.589 90.6002 413.05 87.8661 413.093C85.1319 413.137 81.9189 413.764 80.3537 413.647C78.7883 413.529 78.872 412.666 79.3685 411.731C79.8649 410.796 80.7738 409.791 81.2282 409.289C81.6826 408.786 81.6826 408.787 82.9915 407.636Z" stroke="#F9F9FB" stroke-width="0.999999"/>
<path d="M84.5938 413.615C86.2576 416.111 87.9206 418.606 89.5926 420.249C91.2646 421.893 92.9448 422.686 94.8081 422.52C96.6714 422.355 98.7184 421.232 100.077 420.15C101.436 419.068 102.107 418.027 102.062 416.414C102.018 414.801 101.257 412.615 101.294 412.377C101.33 412.139 102.164 413.849 103.582 414.686C105 415.524 107.002 415.49 108.378 415.408C109.754 415.327 110.504 415.198 111.253 415.07" stroke="#F9F9FB" stroke-width="0.999999"/>
<path d="M108.023 381.343C106.631 377.723 105.238 374.101 103.65 371.594C102.063 369.086 100.28 367.693 98.7796 368.181C97.2794 368.669 96.0638 371.039 95.1011 373.984C94.1383 376.929 93.4284 380.447 93.2535 383.257C93.0787 386.067 93.4385 388.167 94.4183 388.925C95.3981 389.683 96.9971 389.1 98.5224 388.761C100.048 388.423 101.499 388.329 102.681 388.242C103.863 388.155 104.776 388.076 105.688 387.997" stroke="#F9F9FB" stroke-width="0.999999"/>
<path d="M49.9909 361.06C49.5018 363.615 49.0127 366.169 48.8405 368.882C48.6682 371.595 48.8126 374.465 48.9968 376.441C49.1809 378.417 49.4045 379.497 49.6284 380.578C51.0785 380.253 52.5297 379.927 53.6894 379.709C54.849 379.491 55.7182 379.381 55.5696 376.376C55.421 373.372 54.2555 367.471 53.0903 361.571C53.5648 364.115 54.0394 366.66 54.6606 369.835C55.2818 373.01 56.0497 376.816 56.6116 379.306C57.1734 381.796 57.5291 382.971 58.5672 383.168C59.6054 383.366 61.3255 382.589 63.0448 381.812" stroke="#F9F9FB" stroke-width="0.999999"/>
<path d="M186.092 322.241C186.843 321.839 187.593 321.437 189.202 320.152C190.811 318.866 193.278 316.696 196.032 313.168C198.785 309.639 201.824 304.751 205.443 299.899C209.063 295.048 213.262 290.234 215.829 287.648C218.397 285.062 219.334 284.703 220.269 284.345" stroke="#F9F9FB" stroke-width="0.999999"/>
<path d="M288.828 277.451C289.531 280.914 290.233 284.375 290.935 287.835" stroke="#F9F9FB" stroke-width="0.999999"/>
<path d="M549.255 176.964L614.261 125.889L487.614 126.787L537.016 25.3415L434.62 122.298L405.878 41.501L368.153 108.832L326.836 2L281.028 98.9569L157.974 9.18198L207.482 145.464" stroke="#F9F9FB" stroke-width="0.999999"/>
<path d="M236.755 161.464L230.255 143.464M462.465 210.964L548.692 145.64L453.791 149.539L462.465 124.094L423.842 159.106L400.489 96.2639L367.255 159.106L323.243 57.6606L288.213 131.276L203.782 65.7404L227.755 136.964" stroke="#F9F9FB" stroke-width="0.999999"/>
</svg>
